<!DOCTYPE svg PUBLIC "-//W3C//DTD SVG 1.0//EN" "http://www.w3.org/TR/2001/REC-SVG-20010904/DTD/svg10.dtd">

<svg width="100%" height="100%" viewBox="0 0 14001 10001" onload="firstLoad();omoutTwelveMonthLinkGroup('bar');" xmlns:xlink="http://www.w3.org/1999/xlink" xmlns="http://www.w3.org/2000/svg" preserveAspectRatio="xMidYMid meet" zoomAndPan="magnify">
	<style type="text/css">
		<![CDATA[
		text { font-family: sans-serif; }
		text.chartTitle     { fill:#342d62; font-size:400; text-anchor:middle; font-family:verdana,sans-serif; font-variant:small-caps; font-weight:bold; }
		path.price          { stroke:red ; stroke-width:50; stroke-linejoin:round; stroke-linecap:round; fill:none; }
		path.movingAverage  { stroke:grey ; stroke-width:25; stroke-linejoin:round; stroke-linecap:round; fill:none; }
		path.eps            { stroke:blue ; marker:url(#epsMarker); fill:none; stroke-dasharray:50,50 ; stroke-width:25 }
		path.epsfc          { stroke:green ; marker-mid:url(#epsfcMarker); marker-end:url(#epsfcMarker) ; fill:none; stroke-dasharray:50,50 ; stroke-width:25}
		text.xAxisLabels    { font-size:300; text-anchor:middle; }
		text.priceLabels    { font-size:300; text-anchor:end; baseline-shift:-30% }
		text.EPSLabels      { font-size:300; text-anchor:start; baseline-shift:-30% }
		text.xAxisTitle     { fill:grey; font-size:250; text-anchor:middle; }
		text.yAxisTitle     { fill:grey; font-size:250; text-anchor:middle; }
		path.axes           { fill:none; stroke:black; stroke-width:25 ; shape-rendering:crispEdges }
		text.legendText     { fill:#342d62; font-size:300; }
		circle.epsMarker    { fill:blue ; stroke:grey }
		circle.epsfcMarker  { fill:green ; stroke:grey }
		rect.twelveMonthZoom      { fill:whitesmoke ; fill-opacity:0.9 ; stroke-width:20 ; stroke:none ; stroke-linejoin:round ; stroke-dasharray:500 500 }
		.hide           { stroke:none ; fill:white ; fill-opacity:0 }

		@media screen   {   text.changeViewLink { font-size:350px; text-anchor:middle; fill:blue; text-decoration:underline; cursor:pointer; }  }
		@media print    {   text.changeViewLink { fill:none; }    }

		g.fiveYearChart     {  }
		g.twelveMonthChart     {  }
		]]>
	</style>
	<script type="text/ecmascript">
		<![CDATA[
		function omoverTwelveMonthLinkGroup(evt)
		{
			if (currentView == 'fiveYear')
			{
				//svgDocument.getElementById('twelveMonthLink').setAttribute('text-decoration','underline');
				svgDocument.getElementById('twelveMonthBox').setAttribute('opacity',1);
				svgDocument.getElementById('twelveMonthChart').setAttribute('opacity',1);
			}
		}

		function omoutTwelveMonthLinkGroup(evt)
		{
			if (currentView == 'fiveYear')
			{
				svgDocument.getElementById('twelveMonthBox').setAttribute('opacity',0);
				svgDocument.getElementById('twelveMonthChart').setAttribute('opacity',0);
				//svgDocument.getElementById('twelveMonthLink').setAttribute('text-decoration','none');
			}
		}

		function firstLoad()
		{
			//alert('onload');
			if (typeof svgDocument == 'undefined') { svgDocument = document; }
			svgDocument.getElementById('fiveYearLink').setAttribute("visibility","hidden");
			svgDocument.getElementById('twelveMonthHighlights').setAttribute('visibility','visible');
			currentView = 'fiveYear';
		}

		function viewTwelveMonthChart(evt)
		{
			if (currentView == 'fiveYear')
			{
				svgDocument.getElementById('twelveMonthChart').setAttribute('opacity',1);
				svgDocument.getElementById('twelveMonthHighlights').setAttribute('visibility','hidden');
				svgDocument.getElementById('fiveYearLink').setAttribute('visibility','visible');
				svgDocument.getElementById('twelveMonthTrigger').beginElement();
				currentView = 'twelveMonth';
			}
		}

		function viewFiveYearChart(evt)
		{
			if (currentView == 'twelveMonth')
			{
				svgDocument.getElementById('fiveYearLink').setAttribute("visibility","hidden");
				svgDocument.getElementById('twelveMonthHighlights').setAttribute('visibility','visible');
				svgDocument.getElementById('fiveYearTrigger').beginElement();
				currentView = 'fiveYear';
			}
		}
		// ]]>
	</script>
	<defs>
		<g id="chartTitle">
			<desc>Chart Title</desc>
			<text class="chartTitle" font-size="400" x="0" y="500">Aust And Nz Banking Group Ltd</text>
		</g>


		<g id="legend">
			<name>Legend</name>
			<g style="fill:gray; stroke:black; stroke-width:0" shape-rendering="crispEdges">
				<rect x="100" y="100" width="12000" height="500"/>
			</g>
			<g style="fill:white; stroke:black; stroke-width:6" shape-rendering="crispEdges">
				<rect x="0" y="0" width="12000" height="500"/>
			</g>
			<g>
				<path class="price" d="M 300 300 h 500"/>
				<text x="1000" y="400" class="legendText" font-size="250">ANZ Price</text>
				<path class="movingAverage" d="M 3300 300 h 500"/>
				<text x="4000" y="400" class="legendText" font-size="250">Moving Average</text>
				<path class="eps" d="M 6800 300 h 500"/>
				<text x="7500" y="400" class="legendText" font-size="250">EPS</text>
				<path class="epsfc" d="M 9300 300 h 500"/>
				<text x="10000" y="400" class="legendText" font-size="250">EPS Forecast</text>
			</g>
		</g>

		<!--
		<g id="xAxisTitle">
			<desc>X Axis Title</desc>
			<text x="0" y="0" class="xAxisTitle">Date</text>
		</g>
		-->
		<g id="yAxisTitle">
			<desc>Y Axis Title</desc>
			<text x="0" y="0" class="yAxisTitle" font-size="250">Price ($)</text>
		</g>
		<marker id="epsMarker" markerWidth="10" markerHeight="10" refX="5" refY="5">
			<circle class="epsMarker" cx="5" cy="5" r="5"/>
		</marker>
		<marker id="epsfcMarker" markerWidth="10" markerHeight="10" refX="5" refY="5">
			<circle class="epsfcMarker" cx="5" cy="5" r="5"/>
		</marker>
	</defs>


	<g>
		<desc>Border Box</desc>
		<rect x="0" y="0" width="14000" height="10000" style="fill:white; stroke:black; stroke-width:15" shape-rendering="crispEdges"/>
	</g>

	<!--
	<g id="debug" transform="translate(2100,1900)">
		<desc>Some numbers for debug purposes</desc>
		<text style="font-size:200;fill:grey"><tspan x="0" y="250">start of model script</tspan><tspan x="0" y="500">chart.svgTwelveMonthWidth:1428.99061033</tspan><tspan x="0" y="750">chart.svgNow:7613.45852895</tspan><tspan x="0" y="1000">chart.svgTwelveMonthsAgo:6184</tspan><tspan x="0" y="1250">chart.svgTwelveMonthMax:428.571428571</tspan><tspan x="0" y="1500">chart.svgTwelveMonthHeight:2142.85714286</tspan></text>
	</g>
	-->
	<g id="fiveYearChart" class="fiveYearChart">
		<desc>This is the five Year chart</desc>

		<use xlink:href="#legend" x="1000" y="9000"/>

		<g transform="translate(2000,2000)">
			<desc>Chart Area</desc>
			<path class="epsfc" d=" M  6772 1937 8095 1997 9523 711.4"/>
			<path class="eps" d=" M  1064 5280 2492 5383 3920 4234 5348 3094 6772 1937"/>
			<path class="movingAverage" d=" M  348.2 5176 465.6 5160 582.9 5105 704.2 5019 825.5 4914 939 4865 1064 4771 1185 4737 1776 4381 1894 4295 2007 4191 2132 4120 2254 4094 2375 4157 2492 4182 2610 4252 3204 4139 3322 4077 3443 4057 3560 4064 3678 4076 3803 4092 3920 4045 4034 4001 4515 3931 4636 3931 4746 3918 4875 3912 4992 3863 5113 3800 5235 3726 5348 3624 5473 3492 5591 3339 6060 2823 6182 2704 6303 2591 6416 2434 6541 2343 6663 2215 6772 2118"/>
			<path class="price" d=" M  348.2 5109 465.6 5061 582.9 4719 704.2 4329 825.5 3973 939 4380 1064 3737 1185 4320 1776 4243 1894 3984 2007 3711 2132 3797 2254 3999 2375 4786 2492 4707 2610 4650 3204 3664 3322 3441 3443 3720 3560 3810 3678 3951 3803 4204 3920 4179 4034 4136 4515 4281 4636 4114 4746 3497 4875 3368 4992 3081 5113 2996 5235 2987 5348 2880 5473 2464 5591 2134 6060 2666 6182 2567 6303 2027 6416 1327 6541 1890 6663 1333 6772 1723 6948 1419 6956 595.7 6960 642.9 6964 634.3 6968 634.3 6972 634.3 6976 882.9 6980 964.3 6984 968.6 6987 1020 6991 1084 6995 1084 6999 1084 7003 977.1 7007 887.1 7011 887.1 7015 1063 7019 1089 7023 1089 7027 1089 7031 1341 7034 1119 7038 1024 7042 1239 7046 1294 7050 1294 7054 1294 7058 1131 7062 1033 7066 1217 7070 1161 7074 1149 7077 1217 7081 1217 7085 1239 7089 1239 7093 1059 7097 1059 7109 1063 7113 1063 7117 1063 7121 1063 7124 1063 7128 887.1 7132 887.1 7136 887.1 7140 882.9 7144 938.6 7148 878.6 7152 878.6 7156 882.9 7160 882.9 7164 882.9 7167 882.9 7171 942.9 7175 1196 7179 1196 7183 1196 7187 1196 7191 1196 7195 1161 7199 1260 7203 1256 7207 1149 7210 1170 7214 1170 7218 1170 7222 1166 7226 1140 7230 1209 7234 1157 7238 1157 7242 1157 7246 1157 7250 1157 7254 955.7 7257 1063 7261 964.3 7359 754.3 7363 685.7 7367 677.1 7371 664.3 7375 664.3 7379 664.3 7383 664.3 7387 750 7390 848.6 7394 968.6 7398 827.1 7402 835.7 7406 835.7 7410 835.7 7414 960 7418 968.6 7422 1007 7426 934.3 7430 990 7433 990 7437 990 7441 874.3 7445 865.7 7449 835.7 7453 925.7 7457 840 7461 840 7469 822.9 7473 1011 7477 1011 7559 1277"/>

			<path class="axes" d="M 0 6000 v 100 M 1429 6000 v 100 M 2857 6000 v 100 M 4286 6000 v 100 M 5714 6000 v 100 M 7143 6000 v 100 M 8571 6000 v 100 M 10000 6000 v 100 "/>
			<text id="XLabels" class="xAxisLabels" font-size="300">
				<desc>X Axis Marker Labels for Five Year Chart</desc>
				<tspan x="0" y="6500">1997</tspan><tspan x="1429" y="6500">1998</tspan><tspan x="2857" y="6500">1999</tspan><tspan x="4286" y="6500">2000</tspan><tspan x="5714" y="6500">2001</tspan><tspan x="7143" y="6500">2002</tspan><tspan x="8571" y="6500">2003</tspan><tspan x="10000" y="6500">2004</tspan>
			</text>
			<path class="axes" d="M 0 0 h -100 M 0 857.1 h -100 M 0 1714 h -100 M 0 2571 h -100 M 0 3429 h -100 M 0 4286 h -100 M 0 5143 h -100 M 0 6000 h -100 "/>
			<text id="YLabels" class="priceLabels" font-size="300">
				<desc>Y Axis Marker Labels for fiveYearPrice</desc>
				<tspan x="-300" y="6000">  6.00</tspan><tspan x="-300" y="5143">  8.00</tspan><tspan x="-300" y="4286"> 10.00</tspan><tspan x="-300" y="3429"> 12.00</tspan><tspan x="-300" y="2571"> 14.00</tspan><tspan x="-300" y="1714"> 16.00</tspan><tspan x="-300" y="857.1"> 18.00</tspan><tspan x="-300" y="0"> 20.00</tspan>
			</text>
			<path class="axes" d="M 10000 0 v 6000"/>
			<path class="axes" d="M 10000 0 h 100 M 10000 857.1 h 100 M 10000 1714 h 100 M 10000 2571 h 100 M 10000 3429 h 100 M 10000 4286 h 100 M 10000 5143 h 100 M 10000 6000 h 100 "/>
			<text id="EPSLabels" class="EPSLabels" font-size="300">
				<desc>Y Axis Marker Labels for eps</desc>
				<tspan x="10300" y="6000">  0.70</tspan><tspan x="10300" y="5143">  0.80</tspan><tspan x="10300" y="4286">  0.90</tspan><tspan x="10300" y="3429">  1.00</tspan><tspan x="10300" y="2571">  1.10</tspan><tspan x="10300" y="1714">  1.20</tspan><tspan x="10300" y="857.1">  1.30</tspan><tspan x="10300" y="0">  1.40</tspan>
			</text>
			<animate id="fadeOutFiveYear" attributeType="CSS" attributeName="opacity"
				from="1" to="0" begin="twelveMonthTrigger.begin" dur="1s" fill="freeze"/>
			<animate id="fadeInFiveYear" attributeType="CSS" attributeName="opacity"
				from="0" to="1" begin="fiveYearTrigger.begin" dur="1s" fill="freeze"/>
		</g>
	</g>

	<g id="twelveMonthLinkGroup" onmouseover="omoverTwelveMonthLinkGroup(evt)" onmouseout="omoutTwelveMonthLinkGroup(evt)" onclick="viewTwelveMonthChart(evt)">
		<g id="twelveMonthHighlights">
			<desc>The Twelve Month Highlights: the box and text link that change on mouse over</desc>
			<g transform="translate(2000,2000)">
				<rect id="twelveMonthBox" class="twelveMonthZoom" x="6184" y="428.571428571" width="1428.99061033" height="2142.85714286">

				</rect>
			</g>
			<text id="twelveMonthLink" class="changeViewLink" font-size="350" x="7500" y="1800">
				View last twelve months
			</text>
		</g>

		<g transform="translate(8184, 2428.571428571) scale(0.142899061033 0.357142857143)">
			<g id="twelveMonthChart">
				<desc>Chart Area</desc>
				<path class="axes" d="M 0 6000 v 100 M 833.3 6000 v 100 M 1667 6000 v 100 M 2500 6000 v 100 M 3333 6000 v 100 M 4167 6000 v 100 M 5000 6000 v 100 M 5833 6000 v 100 M 6667 6000 v 100 M 7500 6000 v 100 M 8333 6000 v 100 M 9167 6000 v 100 M 10000 6000 v 100 "/>
				<path class="price" d=" M  0 6000 27.4 5964 54.79 5616 82.19 5626 164.4 5472 191.8 5712 219.2 5760 246.6 5496 274 5448 356.2 5304 383.6 4932 411 5064 438.4 4908 465.8 5017 547.9 4584 575.3 4606 602.7 4796 630.1 4560 657.5 4416 739.7 4478 767.1 4584 794.5 4392 821.9 4476 849.3 4320 931.5 3917 958.9 4104 986.3 4020 1014 3431 1041 3720 1151 3900 1178 3850 1205 3876 1233 3636 1315 3786 1342 3540 1370 3096 1397 2844 1425 2904 1507 2700 1534 2580 1562 3120 1589 3000 1616 2515 1699 3108 1726 3348 1753 3600 1781 4140 1808 3972 1890 4344 1918 3888 1945 3760 1973 3450 2000 3600 2082 3420 2110 3576 2137 3478 2164 3263 2192 3530 2274 3480 2301 3360 2329 3576 2356 3960 2384 3972 2466 3744 2493 4092 2521 3480 2548 3360 2575 2880 2658 2940 2685 2832 2712 2670 2740 3000 2767 3024 2849 3132 2877 3036 2904 3012 2932 3048 2959 3000 3041 3144 3068 3000 3096 3034 3123 2795 3151 2520 3233 2093 3260 2136 3288 2476 3315 2460 3342 2532 3425 2124 3452 1931 3479 2676 3507 3300 3534 3480 3616 3120 3644 3132 3671 3902 3699 4140 3726 4272 3808 4980 3836 4560 3863 4500 3890 5280 3918 5400 4000 5676 4027 5064 4055 4208 4082 3780 4110 3624 4192 3169 4219 2772 4247 3202 4274 2767 4301 2256 4384 2496 4411 3056 4438 2592 4466 2220 4493 2232 4575 2160 4603 1908 4630 2100 4658 2532 4685 2640 4767 2400 4795 2040 4822 1824 4849 1680 4877 1560 4959 1427 4986 1411 5014 1392 5041 1810 5068 1596 5151 1416 5178 1214 5205 1672 5233 1465 5260 1106 5342 896.4 5370 720 5397 474 5425 600 5452 579.6 5534 1224 5562 1488 5589 1512 5616 1656 5644 1836 5726 1536 5753 1392 5781 1620 5808 1776 5836 2629 5918 2340 5945 1932 5973 1740 6000 2270 6027 2424 6110 1968 6137 1691 6164 2209 6192 2050 6219 2213 6301 2274 6329 1872 6356 1764 6384 1782 6411 1574 6493 1512 6575 1380 6603 1284 6685 1429 6740 1265 6767 1259 6795 1273 6877 1440 6904 1932 6932 2148 6959 2050 6986 2028 7068 2304 7096 2328 7123 1920 7151 2016 7178 2082 7260 2059 7288 1992 7315 2184 7342 2040 7370 2033 7479 1482 7507 1776 7534 1500 7562 1806 7644 1632 7671 1512 7699 1440 7726 1364 7753 1200 7836 1224 7863 1344 7890 1363 7918 1224 7945 1153 8027 1188 8055 960 8082 1132 8110 1032 8137 996 8219 910.8 8247 648 8274 696 8301 660 8521 1140 8603 1488 8630 1512 8658 1620 8685 1416 8712 1572 8795 1248 8822 1224 8849 1140 8877 1392 8904 1152 8986 1104 9014 1632"/>
				<text id="XLabels" class="xAxisLabels" font-size="300">
					<desc>X Axis Marker Labels for Twelve Month Chart</desc>
					<tspan x="0" y="6500">May 01</tspan><tspan x="2500" y="6500">Aug 01</tspan><tspan x="5000" y="6500">Nov 01</tspan><tspan x="7500" y="6500">Feb 02</tspan><tspan x="10000" y="6500">May 02</tspan>
				</text>
				<path class="axes" d="M 0 0 h -100 M 0 1200 h -100 M 0 2400 h -100 M 0 3600 h -100 M 0 4800 h -100 M 0 6000 h -100 "/>
				<text id="twelveMonthPriceLabels" class="priceLabels" font-size="300">
					<desc>Y Axis Marker Labels for fiveYearPrice</desc>
					<tspan x="-300" y="6000"> 14.00</tspan><tspan x="-300" y="4800"> 15.00</tspan><tspan x="-300" y="3600"> 16.00</tspan><tspan x="-300" y="2400"> 17.00</tspan><tspan x="-300" y="1200"> 18.00</tspan><tspan x="-300" y="0"> 19.00</tspan>
				</text>



				<!-- animateTransform id="loadTrans" attributeType="XML"
					attributeName="transform" type="translate"
					from="1 1" to="6184 428.571428571"
					begin="0s" dur="0.1s"
					fill="freeze" additive="replace"/>
				<animateTransform id="loadScale" attributeType="XML"
					attributeName="transform" type="scale"
					from="1 1" to="0.142899061033 0.357142857143"
					begin="0s" dur="0.1s"
					fill="freeze" additive="sum"/ -->

			<animateTransform id="expandTwelveScale" attributeType="XML"
					attributeName="transform" type="scale"
					from="1 1" to="6.99794661191, 2.8"
					begin="twelveMonthTrigger.begin" dur="1s"
					fill="freeze" additive="replace"/>
			<animateTransform id="expandTwelveTrans" attributeType="XML"
					attributeName="transform" type="translate"
					by="-6184 -428.571428571"
					begin="twelveMonthTrigger.begin" dur="1s"
					fill="freeze" additive="replace"/>

			<set attributeType="CSS" attributeName="opacity" to="1" begin="fiveYearTrigger.begin" dur="1s"/>
				<animateTransform id="shrinkTwelveTrans" attributeType="XML"
					attributeName="transform" type="translate"
					from="1 1" to="6184, 428.571428571"
					begin="fiveYearTrigger.begin" dur="1s"
					fill="freeze" additive="sum"/>
				<animateTransform id="shrinkTwelveScale" attributeType="XML"
					attributeName="transform" type="scale"
					from="1 1" to="0.142899061033, 0.357142857143"
					begin="fiveYearTrigger.begin" dur="1s"
					fill="freeze" additive="sum"/>
			</g>
		</g>
	</g>

	<a id="fiveYearLink" onclick="viewFiveYearChart(evt)">
		<text class="changeViewLink" font-size="350" x="7500" y="1800">View Five Year Chart</text>
	</a>

	<g style="display:none">
		<set id="twelveMonthTrigger" begin="undefined"/>
		<set id="fiveYearTrigger" begin="undefined"/>
	</g>

	<g>
		<desc>Common Chart Elements</desc>
		<text x="12000" y="500" font-size="200">22/04/02 08:10.11</text>

		<use xlink:href="#chartTitle" x="7500" y="500"/>
		<use xlink:href="#xAxisTitle" x="12000" y="8900"/>
		<use xlink:href="#yAxisTitle" transform="translate(800,5000) rotate(-90)"/>
		<path class="axes" d="M 2000,2000 v 6000 h 10000 "/>
	</g>

</svg>
