<svg width="100%" height="100%" viewBox="0 0 14001 10001" onload="firstLoad();omoutTwelveMonthLinkGroup('bar');" xmlns:xlink="http://www.w3.org/1999/xlink" xmlns="http://www.w3.org/2000/svg" preserveAspectRatio="xMidYMid meet" zoomAndPan="magnify">
	<style type="text/css">
		<![CDATA[
		text { font-family: sans-serif; }
		text.chartTitle     { fill:#342d62; font-size:400; text-anchor:middle; font-family:verdana,sans-serif; font-variant:small-caps; font-weight:bold; }
		path.price          { stroke:red ; stroke-width:50; stroke-linejoin:round; stroke-linecap:round; fill:none; }
		path.movingAverage  { stroke:grey ; stroke-width:25; stroke-linejoin:round; stroke-linecap:round; fill:none; }
		path.eps            { stroke:blue ; marker:url(#epsMarker); fill:none; stroke-dasharray:50,50 ; stroke-width:25 }
		path.epsfc          { stroke:green ; marker-mid:url(#epsfcMarker); marker-end:url(#epsfcMarker) ; fill:none; stroke-dasharray:50,50 ; stroke-width:25}
		text.xAxisLabels    { font-size:300; text-anchor:middle; }
		text.priceLabels    { font-size:300; text-anchor:end; baseline-shift:-30% }
		text.EPSLabels      { font-size:300; text-anchor:start; baseline-shift:-30% }
		text.xAxisTitle     { fill:grey; font-size:250; text-anchor:middle; }
		text.yAxisTitle     { fill:grey; font-size:250; text-anchor:middle; }
		path.axes           { fill:none; stroke:black; stroke-width:25 ; shape-rendering:crispEdges }
		text.legendText     { fill:#342d62; font-size:250; }
		circle.epsMarker    { fill:blue ; stroke:darkblue }
		circle.epsfcMarker  { fill:green ; stroke:darkgreen }
		rect.twelveMonthZoom      { fill:whitesmoke ; fill-opacity:0.9 ; stroke-width:20 ; stroke:none ; stroke-linejoin:round ; stroke-dasharray:500 500 }
		.hide           { stroke:none ; fill:white ; fill-opacity:0 }

		@media screen   {   text.changeViewLink { font-size:350px; text-anchor:middle; fill:blue; text-decoration:underline; cursor:pointer; }  }
		@media print    {   text.changeViewLink { fill:none; }    }

		g.fiveYearChart     {  }
		g.twelveMonthChart     {  }
		]]>
	</style>
	<script type="text/ecmascript">
		<![CDATA[

		//var newMenuRoot = parseXML( printNode( document.getElementById( 'NewMenu' ) ), contextMenu );
		//contextMenu.replaceChild( newMenuRoot, contextMenu.firstChild );


		function omoverTwelveMonthLinkGroup(evt)
		{
			if (currentView == 'fiveYear')
			{
				//svgDocument.getElementById('twelveMonthLink').setAttribute('text-decoration','underline');
				svgDocument.getElementById('twelveMonthBox').setAttribute('opacity',1);
				svgDocument.getElementById('twelveMonthChart').setAttribute('opacity',1);
			}
		}

		function omoutTwelveMonthLinkGroup(evt)
		{
			if (currentView == 'fiveYear')
			{
				svgDocument.getElementById('twelveMonthBox').setAttribute('opacity',0);
				svgDocument.getElementById('twelveMonthChart').setAttribute('opacity',0);
				//svgDocument.getElementById('twelveMonthLink').setAttribute('text-decoration','none');
			}
		}

		function firstLoad()
		{
			if (typeof svgDocument == 'undefined') { svgDocument = document; }
			svgDocument.getElementById('fiveYearLink').setAttribute("visibility","hidden");
			svgDocument.getElementById('twelveMonthHighlights').setAttribute('visibility','visible');
			currentView = 'fiveYear';
		}

		function viewTwelveMonthChart(evt)
		{
			if (currentView == 'fiveYear')
			{
				svgDocument.getElementById('twelveMonthChart').setAttribute('opacity',1);
				svgDocument.getElementById('twelveMonthHighlights').setAttribute('visibility','hidden');
				svgDocument.getElementById('fiveYearLink').setAttribute('visibility','visible');
				svgDocument.getElementById('twelveMonthTrigger').beginElement();
				currentView = 'twelveMonth';
			}
		}

		function viewFiveYearChart(evt)
		{
			if (currentView == 'twelveMonth')
			{
				svgDocument.getElementById('fiveYearLink').setAttribute("visibility","hidden");
				svgDocument.getElementById('twelveMonthHighlights').setAttribute('visibility','visible');
				svgDocument.getElementById('fiveYearTrigger').beginElement();
				currentView = 'fiveYear';
			}
		}
		// ]]>
	</script>
	<defs>

		<menu id='NewMenu' xmlns='http://foo' onload='GetPosition( evt )'>
			<header>Custom Menu</header>
			<item onactivate='viewTwelveMonthChart()'>View Twelve Month Chart</item>
			<item onactivate='viewFiveYearChart()'>View Five Year Chart</item>

			<item action='OriginalView'>&amp;Original View</item>



			<separator />
			<item action='CopySVG'>&amp;Copy SVG</item>
			<item action='CopySVG'>Gonads on Toast</item>
			<item action='ViewSVG'>&amp;View In New Window...</item>
			<item action='ViewSource'>View Sourc&amp;e...</item>
			<item action='SaveAs'>&amp;Save SVG As...</item>

			<separator />
			<item action='Help'>&amp;Help...</item>
			<item action='About'>About SVG Viewer...</item>
		</menu>



		<g id="chartTitle">
			<desc>Chart Title</desc>
			<text class="chartTitle" font-size="400" x="0" y="500">Bhp Billiton Ltd</text>
		</g>
		<g id="legend">
			<desc>Legend</desc>
			<rect x="0" y="0" width="12000" height="600" style="fill:white; stroke:grey" shape-rendering="crispEdges"/>
			<text class="legendText" font-size="250">
				<tspan x="1000" y="400">BHP Price</tspan>
				<tspan x="3500" y="400">12 Month Moving Average</tspan>
				<tspan x="8000" y="400">EPS</tspan>
				<tspan x="10000" y="400">EPS Forecast</tspan>
			</text>
			<path class="price" d="M 300 300 h 500"/>
			<path class="movingAverage" d="M 2800 300 h 500"/>
			<path class="eps" d="M 7300 300 h 500"/>
			<path class="epsfc" d="M 9300 300 h 500"/>
		</g>

		<!--
		<g id="xAxisTitle">
			<desc>X Axis Title</desc>
			<text class="xAxisTitle">Date</text>
		</g>
		-->
		<g id="yAxisPriceTitle">
			<desc>Y Axis Title</desc>
			<text class="yAxisTitle" font-size="250">Price ($)</text>
		</g>
		<g id="yAxisEPSTitle">
			<desc>Y Axis Title</desc>
			<text class="yAxisTitle" font-size="250">EPS ($)</text>
		</g>
		<marker id="epsMarker" markerWidth="10" markerHeight="10" refX="5" refY="5">
			<circle class="epsMarker" cx="5" cy="5" r="4"/>
		</marker>
		<marker id="epsfcMarker" markerWidth="10" markerHeight="10" refX="5" refY="5">
			<circle class="epsfcMarker" cx="5" cy="5" r="4"/>
		</marker>
	</defs>


	<g>
		<desc>Border Box</desc>
		<rect x="0" y="0" width="14000" height="10000" style="fill:white; stroke:black; stroke-width:15" shape-rendering="crispEdges"/>
	</g>
	<!--
	<g id="debug" transform="translate(2100,1900)" style="display:none">
		<desc>Some numbers for debug purposes</desc>
		<text style="font-size:200;fill:grey"><tspan x="0" y="250">start of model script</tspan></text>
	</g>
	-->
	<g id="fiveYearChart" class="fiveYearChart">
		<desc>This is the five Year chart</desc>
		<g transform="translate(2000,2000)">
			<desc>Chart Area</desc>
			<path class="epsfc" d="M 6416 714 7735 1722 9163 1428"/>
			<path class="eps" d="M 704.2 3546 2132 3762 3560 5388 4992 2664 6416 714"/>
			<path class="movingAverage" d="M 348.2 3510 465.6 3485 582.9 3439 704.2 3384 825.5 3375 939 3396 1064 3438 1185 3516 1776 3853 1894 3897 2007 3991 2132 4104 2254 4236 2375 4369 2492 4477 2610 4530 3204 4720 3322 4685 3443 4675 3560 4592 3678 4521 3803 4446 3920 4325 4034 4236 4515 3759 4636 3635 4746 3528 4875 3512 4992 3420 5113 3404 5235 3360 5348 3311 5473 3273 5591 3187 6060 2988 6182 2891 6303 2786 6416 2690 6541 2668 6663 2631 6772 2644"/>
			<path class="price" d="M 348.2 3637 465.6 3335 582.9 3117 704.2 2942 825.5 3290 939 3615 1064 3895 1185 4450 1776 4075 1894 4198 2007 4568 2132 4576 2254 4658 2375 5021 2492 5016 2610 4590 3204 4632 3322 3614 3443 4064 3560 3497 3678 3652 3803 3679 3920 3455 4034 3860 4515 3892 4636 3401 4746 3234 4875 3410 4992 2867 5113 3287 5235 3086 5348 3035 5473 2967 5591 2743 6060 2705 6182 2147 6303 1863 6416 2166 6541 2580 6663 2808 6772 3252 6948 3150 6956 2508 6960 2166 6964 2622 6968 2622 6972 2622 6976 2658 6980 2550 6984 2598 6987 2658 6991 2580 6995 2580 6999 2580 7003 2550 7007 2418 7011 2418 7015 2514 7019 2340 7023 2340 7027 2340 7031 2352 7034 2268 7038 2238 7042 2274 7046 2172 7050 2172 7054 2172 7058 2136 7062 2220 7066 2250 7070 2382 7074 2460 7077 2466 7081 2466 7085 2490 7089 2490 7093 2190 7097 2190 7109 2238 7113 2238 7117 2238 7121 2238 7124 2238 7128 2100 7132 2100 7136 2100 7140 2100 7144 2100 7148 1968 7152 1968 7156 1854 7160 1854 7164 1854 7167 1854 7171 1656 7175 1710 7179 1710 7183 1710 7187 1710 7191 1710 7195 1710 7199 1884 7203 1860 7207 1968 7210 1938 7214 1938 7218 1938 7222 1848 7226 1710 7230 1692 7234 1494 7238 1494 7242 1494 7246 1494 7250 1494 7254 1692 7257 1638 7261 1692 7359 1464 7363 1350 7367 1368 7371 1326 7375 1434 7379 1434 7383 1434 7387 1362 7390 1218 7394 1260 7398 1152 7402 1206 7406 1206 7410 1206 7414 1248 7418 1176 7422 1284 7426 1458 7430 1626 7433 1626 7437 1626 7441 1500 7445 1434 7449 1344 7453 1494 7457 1572 7461 1572 7469 1626 7473 1728 7477 1728 7559 1890"/>

			<path class="axes" d="M 0 6000 v 100 M 1429 6000 v 100 M 2857 6000 v 100 M 4286 6000 v 100 M 5714 6000 v 100 M 7143 6000 v 100 M 8571 6000 v 100 M 10000 6000 v 100 "/>
			<text id="XLabels" class="xAxisLabels" font-size="300">
				<desc>X Axis Marker Labels for Five Year Chart</desc>
				<tspan x="0" y="6500">1997</tspan><tspan x="1429" y="6500">1998</tspan><tspan x="2857" y="6500">1999</tspan><tspan x="4286" y="6500">2000</tspan><tspan x="5714" y="6500">2001</tspan><tspan x="7143" y="6500">2002</tspan><tspan x="8571" y="6500">2003</tspan><tspan x="10000" y="6500">2004</tspan>
			</text>
			<path class="axes" d="M 0 0 h -100 M 0 1200 h -100 M 0 2400 h -100 M 0 3600 h -100 M 0 4800 h -100 M 0 6000 h -100 "/>
			<text id="YLabels" class="priceLabels" font-size="300">
				<desc>Y Axis Marker Labels for fiveYearPrice</desc>
				<tspan x="-300" y="6000">  4.00</tspan><tspan x="-300" y="4800">  6.00</tspan><tspan x="-300" y="3600">  8.00</tspan><tspan x="-300" y="2400"> 10.00</tspan><tspan x="-300" y="1200"> 12.00</tspan><tspan x="-300" y="0"> 14.00</tspan>
			</text>
			<path class="axes" d="M 10000 0 v 6000"/>
			<path class="axes" d="M 10000 0 h 100 M 10000 1200 h 100 M 10000 2400 h 100 M 10000 3600 h 100 M 10000 4800 h 100 M 10000 6000 h 100 "/>
			<text id="EPSLabels" class="EPSLabels" font-size="300">
				<desc>Y Axis Marker Labels for eps</desc>
				<tspan x="10300" y="6000">  0.00</tspan><tspan x="10300" y="4800">  0.20</tspan><tspan x="10300" y="3600">  0.40</tspan><tspan x="10300" y="2400">  0.60</tspan><tspan x="10300" y="1200">  0.80</tspan><tspan x="10300" y="0">  1.00</tspan>
			</text>
			<animate id="fadeOutFiveYear" attributeType="CSS" attributeName="opacity"
				from="1" to="0" begin="twelveMonthTrigger.begin" dur="1s" fill="freeze"/>
			<animate id="fadeInFiveYear" attributeType="CSS" attributeName="opacity"
				from="0" to="1" begin="fiveYearTrigger.begin" dur="1s" fill="freeze"/>
		</g>
	</g>

	<g id="twelveMonthLinkGroup" onmouseover="omoverTwelveMonthLinkGroup(evt)" onmouseout="omoutTwelveMonthLinkGroup(evt)" onclick="viewTwelveMonthChart(evt)">
		<g id="twelveMonthHighlights">
			<desc>The Twelve Month Highlights: the box and text link that change on mouse over</desc>
			<g transform="translate(2000,2000)">
				<rect id="twelveMonthBox" class="twelveMonthZoom" x="6306" y="600" width="1428.99061033" height="3600">

				</rect>
			</g>
			<text id="twelveMonthLink" class="changeViewLink" font-size="350" x="7500" y="1800">
				View last twelve months

			</text>
		</g>

		<g transform="translate(8306, 2600) scale(0.142899061033, 0.6)">
			 <g id="twelveMonthChart">
				<desc>Chart Area</desc>
				<path class="axes" d="M 0 6000 v 100 M 833.3 6000 v 100 M 1667 6000 v 100 M 2500 6000 v 100 M 3333 6000 v 100 M 4167 6000 v 100 M 5000 6000 v 100 M 5833 6000 v 100 M 6667 6000 v 100 M 7500 6000 v 100 M 8333 6000 v 100 M 9167 6000 v 100 M 10000 6000 v 100 "/>
				<path class="price" d="M 0 2163 82.19 2197 109.6 2231 137 2105 164.4 2139 191.8 2095 301.4 2419 328.8 2773 356.2 2521 383.6 2484 465.8 2599 493.2 2524 520.5 2410 547.9 2691 575.3 2671 657.5 2760 684.9 2723 712.3 2857 739.7 2628 767.1 2610 849.3 2520 876.7 2270 904.1 2140 931.5 2250 958.9 2400 1041 2590 1068 2650 1096 2600 1123 2464 1151 2460 1233 2370 1260 2430 1288 2524 1315 2830 1342 2770 1425 3040 1452 3390 1479 3800 1507 3630 1534 3510 1616 3460 1644 3300 1671 2958 1699 3120 1726 3010 1808 2960 1836 3010 1863 3330 1890 3540 1918 3640 2000 3700 2027 3820 2055 3570 2082 3830 2110 3760 2192 3870 2219 3820 2247 3980 2274 3860 2301 3680 2384 3370 2411 3368 2438 3350 2466 3410 2493 3680 2575 3567 2603 3570 2630 3280 2658 3300 2685 3249 2767 3500 2795 3620 2822 3910 2849 3893 2877 3850 2959 4174 2986 3820 3014 4010 3041 4475 3068 5050 3151 4880 3178 4630 3205 4460 3233 4435 3260 4420 3342 4210 3370 4250 3397 4160 3425 4040 3452 3763 3534 4161 3562 4050 3589 4129 3616 3760 3644 3436 3726 3554 3753 3340 3781 3540 3808 3650 3836 3650 3918 4000 3945 4060 3973 3850 4000 3670 4027 3620 4110 3638 4137 3760 4164 4070 4192 4050 4219 4050 4301 4130 4329 4010 4356 4087 4384 4160 4411 4050 4493 3840 4521 3740 4548 3180 4575 2610 4603 3372 4685 3370 4712 3160 4740 3329 4767 3430 4795 3301 4877 3250 4904 2987 4932 3100 4959 3190 4986 2957 5068 2840 5096 2780 5123 2730 5151 2790 5178 2620 5260 2560 5288 2700 5315 2750 5342 2970 5370 3110 5452 3150 5479 2950 5507 2650 5534 2730 5562 2800 5644 2613 5726 2510 5753 2500 5836 2500 5890 2280 5918 2280 5945 2090 6027 1760 6055 1800 6082 1850 6110 1850 6137 1931 6219 1900 6247 2140 6274 2140 6301 2280 6329 2230 6411 2080 6438 1850 6466 1820 6493 1490 6521 1580 6630 1820 6658 1729 6685 1820 6712 1700 6795 1440 6822 1315 6849 1150 6877 1350 6904 1350 6986 1194 7014 1080 7041 850 7068 610 7096 1130 7178 1290 7205 1350 7233 1300 7260 1400 7288 1600 7370 1440 7397 1310 7425 1280 7452 1210 7671 1010 7753 1080 7781 960 7808 1140 7836 1430 7863 1710 7945 1500 7973 1390 8000 1240 8027 1490 8055 1620 8137 1710 8164 1880"/>
				<text id="XLabels" class="xAxisLabels" font-size="300">
					<desc>X Axis Marker Labels for Twelve Month Chart</desc>
					<tspan x="0" y="6500">Jun 01</tspan><tspan x="2500" y="6500">Sep 01</tspan><tspan x="5000" y="6500">Dec 01</tspan><tspan x="7500" y="6500">Mar 02</tspan><tspan x="10000" y="6500">Jun 02</tspan>
				</text>
				<path class="axes" d="M 0 0 h -100 M 0 1000 h -100 M 0 2000 h -100 M 0 3000 h -100 M 0 4000 h -100 M 0 5000 h -100 M 0 6000 h -100 "/>
				<text id="twelveMonthPriceLabels" class="priceLabels" font-size="300">
					<desc>Y Axis Marker Labels for fiveYearPrice</desc>
					<tspan x="-300" y="6000">  7.00</tspan><tspan x="-300" y="5000">  8.00</tspan><tspan x="-300" y="4000">  9.00</tspan><tspan x="-300" y="3000"> 10.00</tspan><tspan x="-300" y="2000"> 11.00</tspan><tspan x="-300" y="1000"> 12.00</tspan><tspan x="-300" y="0"> 13.00</tspan>
				</text>

				<animateTransform id="expandTwelveScale" attributeType="XML"
					attributeName="transform" type="scale"
					from="1 1" to="6.99794661191 1.66666666667"
					begin="twelveMonthTrigger.begin" dur="1s"
					fill="freeze" additive="replace"/>
				<animateTransform id="expandTwelveTrans" attributeType="XML"
					attributeName="transform" type="translate"
					by="-6306 -600"
					begin="twelveMonthTrigger.begin" dur="1s"
					fill="freeze" additive="replace"/>

				<set attributeType="CSS" attributeName="opacity" to="1" begin="fiveYearTrigger.begin" dur="1s"/>
				<animateTransform id="shrinkTwelveTrans" attributeType="XML"
					attributeName="transform" type="translate"
					from="1 1" to="6306, 600"
					begin="fiveYearTrigger.begin" dur="1s"
					fill="freeze" additive="sum"/>
				<animateTransform id="shrinkTwelveScale" attributeType="XML"
					attributeName="transform" type="scale"
					from="1 1" to="0.142899061033, 0.6"
					begin="fiveYearTrigger.begin" dur="1s"
					fill="freeze" additive="sum"/>
			</g>
		</g>
	</g>

	<a id="fiveYearLink" onclick="viewFiveYearChart(evt)">
		<text class="changeViewLink" font-size="350" x="7500" y="1800">View Five Year Chart</text>
	</a>

	<g style="display:none">
		<set id="twelveMonthTrigger" begin="undefined"/>
		<set id="fiveYearTrigger" begin="undefined"/>
	</g>


	<g>
		<desc>Common Chart Elements</desc>
		<text x="12000" y="500" font-size="200">02/05/02 06:22.06</text>
		<use xlink:href="#chartTitle" x="7500" y="500"/>
		<use xlink:href="#xAxisTitle" x="12000" y="8900" style="display:none"/>
		<use xlink:href="#yAxisPriceTitle" x="1500" y="1500"/>
		<use xlink:href="#yAxisEPSTitle" x="12500" y="1500"/>
		<use xlink:href="#legend" x="1000" y="9000"/>
		<path class="axes" d="M 2000,2000 v 6000 h 10000 "/>
	</g>

</svg>
