
    
 





<svg class="main" viewBox="0 0 14001 10001" xmlns:xlink="http://www.w3.org/1999/xlink" xmlns="http://www.w3.org/2000/svg" preserveAspectRatio="xMidYMid meet" zoomAndPan="magnify">

    <style type="text/css"><![CDATA[
        @media screen   {   text.changeViewLink { font-size:350 ; text-anchor:middle; fill:blue ; text-decoration:underline; }  }
        @media print    {   text.changeViewLink { fill:none; }    }
        svg.main            { height:100% ; width:100%; }
        text.chartTitle     { fill:#342d62; font-size:400; text-anchor:start; font-family:verdana,sans-serif; font-variant:small-caps; font-weight:bold; }
        path.gridLine       { stroke:grey; stroke-width:10; stroke-dasharray:100,100 ; fill:none }
        path.price          { stroke:red; stroke-width:50; stroke-linejoin:round; stroke-linecap:round; fill:none; }
        path.movingAverage  { stroke:grey; stroke-width:25; stroke-linejoin:round; stroke-linecap:round; fill:none; }
        path.eps            { stroke:blue; marker:url(#epsMarker); fill:none; stroke-dasharray:50,50 ; stroke-width:25; }
        path.epsfc          { stroke:green; marker-mid:url(#epsfcMarker); marker-end:url(#epsfcMarker) ; fill:none; stroke-dasharray:50,50 ; stroke-width:25; }
        text.xAxisLabels    { font-size:300; text-anchor:middle; fill:#342d62; }
        text.priceLabels    { font-size:300; text-anchor:end; baseline-shift:-30%; fill:#342d62; }
        text.EPSLabels      { font-size:300; text-anchor:start; baseline-shift:-30%; fill:#342d62; }
        text.xAxisTitle     { fill:grey; font-size:250; text-anchor:middle; }
        text.yAxisTitle     { fill:grey; font-size:250; text-anchor:middle; }
        path.axes           { fill:none; stroke:black; stroke-width:25 ; shape-rendering:crispEdges; }
        text.legendText     { fill:#342d62 ; font-size:250; }
        circle.epsMarker    { fill:blue; stroke:darkblue; }
        circle.epsfcMarker  { fill:green; stroke:darkgreen; }
        rect.twelveMonthZoom      { fill:whitesmoke; fill-opacity:0.9; stroke-width:20; stroke:none; stroke-linejoin:round ; stroke-dasharray:500 500; }
        text.copyrightNotice { fill:#cec7d6 ; font-size:200; text-anchor:end; opacity:0; }        
    ]]></style>
    
    <script type="text/ecmascript"><![CDATA[
        var newMenuRoot = parseXML( printNode( document.getElementById( 'NewMenu' ) ), contextMenu );
        contextMenu.replaceChild( newMenuRoot, contextMenu.firstChild );
        // ]]>
    </script>
    <defs>

        <menu id='NewMenu' xmlns='http://foo' onload='GetPosition( evt )'>
            <header>Custom Menu</header>
            
            
            
            <item action='OriginalView'>&amp;Original View</item>
            
            
            
            <separator />
            <item action='CopySVG'>&amp;Copy SVG</item>
            <item action='ViewSVG'>&amp;View In New Window...</item>
            <item action='ViewSource'>View Sourc&amp;e...</item>
            <item action='SaveAs'>&amp;Save SVG As...</item>
            
            <separator />
            <item action='Help'>&amp;Help...</item>
            <item action='About'>About SVG Viewer...</item>
        </menu>



        <g id="chartTitle">
            <desc>Chart Title</desc>
            <text class="chartTitle" x="0" y="500">John Fairfax Holdings Ltd</text>
        </g>
        <g id="legend">
            <name>Legend</name>
            <rect x="0" y="0" width="12000" height="600" style="fill:white; stroke:grey" shape-rendering="crispEdges"/>
            <text class="legendText">
                <tspan x="1000" y="400">FXJ Price</tspan>
                <tspan x="3500" y="400">12 Month Moving Average</tspan>
                <tspan x="8000" y="400">EPS</tspan>
                <tspan x="10000" y="400">EPS Forecast</tspan>
            </text>
            <path class="price" d="M 300 300 h 500"/>
            <path class="movingAverage" d="M 2800 300 h 500"/>
            <path class="eps" d="M 7300 300 h 500"/>
            <path class="epsfc" d="M 9300 300 h 500"/>
        </g>
        
        <g id="xAxisTitle">
            <desc>X Axis Title</desc>
            <text class="xAxisTitle">Date</text>
        </g>
        <g id="yAxisPriceTitle">
            <desc>Y Axis Title</desc>
            <text class="yAxisTitle">Price ($)</text>
        </g>
        <g id="yAxisEPSTitle">
            <desc>Y Axis Title</desc>
            <text class="yAxisTitle">EPS ($)</text>
        </g>
        <marker id="epsMarker" markerWidth="10" markerHeight="10" refX="5" refY="5">
            <circle class="epsMarker" cx="5" cy="5" r="4"/>
        </marker>
        <marker id="epsfcMarker" markerWidth="10" markerHeight="10" refX="5" refY="5">
            <circle class="epsfcMarker" cx="5" cy="5" r="4"/>
        </marker>
    </defs>
    
    
    <g>
        <desc>Border Box</desc>
        <rect x="0" y="0" width="14000" height="10000" style="fill:white; stroke:black; stroke-width:15" shape-rendering="crispEdges"/>
    </g>
    <g id="fiveYearChart" class="fiveYearChart">
        <desc>This is the five Year chart</desc>
        <use xlink:href="#yAxisEPSTitle" x="12500" y="1500"/>
        <g transform="translate(2000,2000)">
            <desc>Chart Area</desc>
            <path class="gridLine" d="M 0 0 h 10000 M 0 1500 h 10000 M 0 3000 h 10000 M 0 4500 h 10000 M 0 6000 h 10000 "/>
            <path class="epsfc" d="M 6416 2310 7735 2880 9163 1890"/>
            <path class="eps" d="M 704.2 4290 2132 3330 3560 2310 4992 540 6416 2310"/>
            <path class="movingAverage" d="M 348.2 4649 465.6 4592 582.9 4526 704.2 4500 825.5 4474 939 4442 1064 4393 1185 4385 1776 4238 1894 4273 2007 4288 2132 4344 2254 4369 2375 4430 2492 4477 2610 4550 3204 4278 3322 4128 3443 3978 3560 3809 3678 3582 3803 3394 3920 3243 4034 3118 4515 2372 4636 2146 4746 2025 4875 1977 4992 1908 5113 1879 5235 1843 5348 1826 5473 1776 5591 1777 6060 2234 6182 2457 6303 2562 6416 2625 6541 2716 6663 2818 6772 3042"/>
            <path class="price" d="M 348.2 4346 465.6 4245 582.9 4065 704.2 4290 825.5 4245 939 4125 1064 3855 1185 4290 1776 4664 1894 4800 2007 4440 2132 4790 2254 4620 2375 5040 2492 4740 2610 4800 3204 3150 3322 2715 3443 2850 3560 2250 3678 1830 3803 2175 3920 3086 4034 3105 4515 420 4636 75 4746 1575 4875 2100 4992 1947 5113 1875 5235 1365 5348 1950 5473 2430 5591 3120 6060 3630 6182 2970 6303 2940 6416 2925 6541 3120 6663 3210 6772 4275 6948 3945 6956 3750 6960 3750 6964 3750 6968 3750 6972 3750 6976 3705 6980 3675 6984 3450 6987 3480 6991 3390 6995 3390 6999 3390 7003 3330 7007 3435 7011 3435 7015 3450 7019 3480 7023 3480 7027 3480 7031 3615 7034 3675 7038 3555 7042 3330 7046 3195 7050 3195 7054 3195 7058 3240 7062 3375 7066 3420 7070 3585 7074 3600 7077 3600 7081 3600 7085 3645 7089 3645 7093 3360 7097 3360 7109 3360 7113 3360 7117 3360 7121 3360 7124 3360 7128 3270 7132 3270 7136 3270 7140 3270 7144 3240 7148 3225 7152 3390 7156 3390 7160 3390 7164 3390 7167 3390 7171 3390 7175 3270 7179 3270 7183 3270 7187 3270 7191 3270 7195 3315 7199 3450 7203 3420 7207 3480 7210 3585 7214 3585 7218 3585 7222 3555 7226 3600 7230 3615 7234 3555 7238 3555 7242 3555 7246 3555 7250 3555 7254 3570 7257 3645 7261 3465 7359 3300 7363 3255 7367 3435 7371 3570 7375 3525 7379 3525 7383 3525 7387 3525 7390 3210 7394 3045 7398 3060 7402 2985 7406 2985 7410 2985 7414 2850 7418 3075 7422 3000 7426 3000 7430 2985 7433 2985 7437 2985 7441 3045 7445 3045 7449 3150 7453 2985 7457 2955 7461 2955 7469 2910 7473 3030 7477 3030 7559 3495 7743 3630 7746 3630 7750 3630 7754 3630 7774 3630 7778 3630 7782 3630 7786 3630 7797 3630 7801 3630 7813 3630 7825 4035 7829 4035 7852 4035"/>
       
            <path class="axes" d="M 0 6000 v 100 M 1429 6000 v 100 M 2857 6000 v 100 M 4286 6000 v 100 M 5714 6000 v 100 M 7143 6000 v 100 M 8571 6000 v 100 M 10000 6000 v 100 "/>
            <text id="XLabels" class="xAxisLabels">
                <desc>X Axis Marker Labels for Five Year Chart</desc>
                <tspan x="0" y="6500">1997</tspan><tspan x="1429" y="6500">1998</tspan><tspan x="2857" y="6500">1999</tspan><tspan x="4286" y="6500">2000</tspan><tspan x="5714" y="6500">2001</tspan><tspan x="7143" y="6500">2002</tspan><tspan x="8571" y="6500">2003</tspan><tspan x="10000" y="6500">2004</tspan>
            </text>
            <path class="axes" d="M 0 0 h -100 M 0 1500 h -100 M 0 3000 h -100 M 0 4500 h -100 M 0 6000 h -100 "/>
            <text id="YLabels" class="priceLabels">
                <desc>Y Axis Marker Labels for fiveYearPrice</desc>
                <tspan x="-300" y="6000">  2.00</tspan><tspan x="-300" y="4500">  3.00</tspan><tspan x="-300" y="3000">  4.00</tspan><tspan x="-300" y="1500">  5.00</tspan><tspan x="-300" y="0">  6.00</tspan>
            </text>
            <path class="axes" d="M 10000 0 v 6000"/>
            <path class="axes" d="M 10000 0 h 100 M 10000 1500 h 100 M 10000 3000 h 100 M 10000 4500 h 100 M 10000 6000 h 100 "/>
            <text id="EPSLabels" class="EPSLabels">
                <desc>Y Axis Marker Labels for eps</desc>
                <tspan x="10300" y="6000">  0.05</tspan><tspan x="10300" y="4500">  0.10</tspan><tspan x="10300" y="3000">  0.15</tspan><tspan x="10300" y="1500">  0.20</tspan><tspan x="10300" y="0">  0.25</tspan>    
            </text>
        </g>
    </g>
 
    <g>
        <desc>Common Chart Elements</desc>
        <image id="vanEykLogo" xlink:href="http://www.irate.vaneyk.com.au/images/vanEykLogo.gif" x="10560" y="200" height="870" width="2940" opacity="0.3"/>
        <text x="13300" y="500" class="copyrightNotice">02/07/02 03:33.40
            <set begin="vanEykLogo.click" attributeName="opacity" to="1"/>
        </text>
        <use xlink:href="#chartTitle" x="500" y="300"/>
        <use xlink:href="#xAxisTitle" x="12000" y="8900" style="display:none"/>
        <use xlink:href="#yAxisPriceTitle" x="1500" y="1500"/>
        <use xlink:href="#legend" x="1000" y="9000"/>
        <path class="axes" d="M 2000,2000 v 6000 h 10000 "/>
        <g id="debug" transform="translate(2100,1900)" style="visibility:visible">
            <desc>Some numbers for debug purposes</desc>
            <text style="font-size:200;fill:grey">
                
            </text>           
        </g>
    </g>

</svg>


