<?xml version="1.0" standalone="no"?>
<!DOCTYPE svg PUBLIC "-//W3C//DTD SVG 1.1//EN" "http://www.w3.org/Graphics/SVG/1.1/DTD/svg11.dtd">
<svg xmlns="http://www.w3.org/2000/svg" viewBox="0 0 256.0 384.0">
<rect fill="#FFFFFF" width="256.0" height="384.0"/>
<path stroke="none" fill="#a19182" d="M0 0L0 47C6.54245 43.371 7.99445 39.1828 8 32L16 32L16 24L20 24L20 16L24 16C24.0257 8.73645 26.3827 5.44397 32 1z"/>
<path stroke="none" fill="#a69689" d="M24 16L20 16L20 24L16 24L16 32L8 32L0.303241 49.0934L0 91L8 87L8 86L4 86L8 72L16 72L16 56L24 56L24 48L28 48L28 40L24 40L24 39L32 33L29 32L29 24L36 24L36 16L40 16L40 8L45 8L45 0C32.8106 0 24.0108 2.06046 24 16z"/>
<path stroke="none" fill="#a9998a" d="M45 0L45 8L40 8L40 16L36 16L36 24L29 24L29 32L43 32L43 24L46 24L46 16C50.9907 15.6074 54.4761 12.7859 56 8L72 8L72 0z"/>
<path stroke="none" fill="#ac9f8f" d="M72 0L72 8L64 8L64 24L56 24L56 32L80 32L80 0z"/>
<path stroke="none" fill="#b4a495" d="M80 0L80 32C85.245 32 103.782 34.683 105 29L106 29L108 32L108 22L109 22L109 32L111 32L108 0z"/>
<path stroke="none" fill="#fce9da" d="M108 0L110 19L111 19L111 15C127.654 19.9228 150.609 16 168 16L168 19L184 19L184 14L192 14L192 24L208 24L208 32L224 32L224 0z"/>
<path stroke="none" fill="#fce5d5" d="M224 0L224 16L232 16L232 24L240 24L240 32L251 32L251 48L256 48L256 0z"/>
<path stroke="none" fill="#aa9c8f" d="M56 8C53.8221 12.15 50.712 15.2436 46 16L46 24L43 24L45 40L37 40L37 56L32 56L32 48L30 48L30 64L27 64L27 72L8 83L16 86C11.236 86.0137 6.04754 85.8619 3 90L48 80L48 79L40 78L40 56L48 56L48 40L56 40L56 24L64 24L64 8z"/>
<path stroke="none" fill="#fcecdc" d="M184 14L184 19L168 19L168 16L139 16L129.028 17.6034L128 32L144 32L144 24L152 24L152 32L160 32L160 36L168 36L168 32L184 32L184 40L208 40L208 24L192 24L192 14z"/>
<path stroke="none" fill="#fdecdc" d="M111 15C111 26.0107 113.911 36.1682 114.91 47C115.413 52.4476 114.919 59.0796 121 61L128 57L128 48L120 48L120 40L124 40L124 32L128 32L129 16z"/>
<path stroke="none" fill="#fbe8d7" d="M224 16L224 32L237 32L237 40L240 40L240 51L244 51L245 56L208 60L208 63L144 59L144 62C137.801 61.948 120.903 50.0655 122 63L118 63L118 64L256 63L256 48L251 48L251 32L240 32L240 24L232 24L232 16z"/>
<path stroke="none" fill="#b6a697" d="M108 22L108 32L106 29L105 29L105 32L96 32C96 40.0396 93.8833 47.8801 104 48C102.7 52.0034 101.495 56.0807 97 57L97 61L100 60L98 67L100 64L101 64L102 68L104 66L121 76L119 71L128 70L128 65L118 64L118 63L122 63L122 61C112.691 58.2357 112.673 35.5222 112 27L111 27L111 32L109 32z"/>
<path stroke="none" fill="#feeede" d="M144 24L144 32L128 32L128 40L176 40L176 48L192 48L192 52L207 52C208.456 56.3866 211.85 55.9853 216 56L216 52L220 52L220 51C211.788 49.9612 208.081 48.9707 208 40L184 40L184 32L168 32L168 36L160 36L160 32L152 32L152 24z"/>
<path stroke="none" fill="#a9998c" d="M24 39L24 40L28 40L28 48L24 48L24 56L16 56L16 72L8 72L4 86L16 86L8 83L27 72L27 64L30 64L30 48L32 48L32 56L37 56L37 40L45 40L45 32C35.5103 32 31.4235 33.1288 24 39z"/>
<path stroke="none" fill="#ad9f92" d="M56 32L56 40L48 40L48 56L40 56L40 78C44.3669 79.5963 51.3811 79.8159 55.9722 78.5833C59.1995 77.7169 62.9246 74.0355 58 73L58 72L78 64L77 32z"/>
<path stroke="none" fill="#b2a497" d="M77 32L78 64L73 67L88 68L85 67L86 72C80.2294 72.9625 81.4041 76.5212 83 81L84 81L84 78L87 80C99.2626 82.3007 95.2043 76.8998 91 68L97 64L100 60L97 61L97 57C101.903 56.5148 103.075 52.4182 104 48C94.2411 47.6821 96 39.6356 96 32z"/>
<path stroke="none" fill="#ffefe0" d="M124 32L124 40L120 40L120 48L128 48L128 56L144 62L144 59L208 63L208 58L192 56L192 48L176 48L176 40L128 40L128 32z"/>
<path stroke="none" fill="#fcebdb" d="M208 32C208 43.8174 206.59 49.9417 220 51L220 52L216 52L216 56C211.839 55.9508 209.112 55.83 207 52L192 52L192 56C198.509 56.0223 203.876 58.9888 210.17 59.6512C221.782 60.8734 234.041 58.8426 245 56L244 51L240 51L240 40L237 40L237 32z"/>
<path stroke="none" fill="#faccb4" d="M224 62L224 63L256 64z"/>
<path stroke="none" fill="#ec9162" d="M208 65L208 71L176 72C177.145 81.179 188.786 72.6357 192 80C177.506 80 176 81.5675 176 96L208 96L208 88L200 88L200 80C203.718 81.01 206.882 81.1689 208 77L216 77L216 80L224 80L224 72L248 71L248 70L240 70L240 65L256 65C242.113 59.1726 222.419 64.879 208 65z"/>
<path stroke="none" fill="#917e77" d="M97 64L91 68C93.2984 75.2153 100.073 82.3954 88 81L90 86L90 87L86 89L86 90C89.0326 97.6788 72.0267 100.896 67 101L67 102L72 104L66 105L63 108C64.5787 114.555 63.3808 124.518 71 127L72 129L71 133L75 133L75 136L72 137L94 140L94 137L86 131L88 136L81 131L75 131L77 129L77 128L73 128L73 120L69 120L69 116L66 116C66.4396 102.465 89.9747 103.041 94 90L110.039 84.5185L126 83C124.752 78.4401 122.693 76.6343 118 76C115.789 69.6639 109.96 67.5477 104 66L102 68L101 64L100 64L99 67z"/>
<path stroke="none" fill="#e59266" d="M128 65L128 69L136 70L135 73L142 75L141 78L142 80L158 95L160 84L159 84C154.388 91.0268 150.83 85.1079 152 79L147 78L148 75L152 76L152 68L148 68L148 67L150 67L150 66L144 66L144 65L176 66L176 69L163 68L163 69L208 70L208 65L216 65L190 64z"/>
<path stroke="none" fill="#e99161" d="M144 65L144 66L150 66L150 67L148 67L148 68L152 68L152 76L148 75L147 78L152 79C150.232 85.4489 155.277 92.4265 159 84L160 84L158.443 106.985L171 138L176 112L172 112L172 116L170 116L170 112L165 113L168 80L160 80L160 71L156 71L156 70L160 70L160 67L176 67z"/>
<path stroke="none" fill="#ea8e5f" d="M240 65L240 70L248 70L248 71L240 71L240 96L248 96L248 112L256 112L256 65z"/>
<path stroke="none" fill="#988f92" d="M70 67C67.4474 71.3845 62.7703 71.792 58 72L58 73L73 73L73 77L77 76L77 73L73 68C77.2875 71.2627 77.9529 74.799 78 80L79 80L80 78L81 83C84.4337 84.0665 85.4574 85.4634 86 89L90 87L90 86L90 80L87 80C85.5827 77.4766 84.5169 78.5416 84 81L83 81C81.9667 76.5264 80.7283 73.6025 86 72L85 67L88 68C84.354 63.8276 75.0189 66.6316 70 67z"/>
<path stroke="none" fill="#ea9262" d="M160 67L160 70L156 70L156 71L160 71L160 80L168 80L165 113L170 112L170 116L172 116L172 112L176 112C176 105.461 172.77 86.4739 177.603 81.7423C180.747 78.6648 187.978 80 192 80C189.733 71.8668 177.984 80.912 176 72L208 71L208 70L163 69L163 68L176 69L176 67z"/>
<path stroke="none" fill="#8b7f81" d="M73 68L77 73L77 76L73 77L73 73C66.8798 71.98 61.0289 74.6474 56 78C52.8442 80.1039 51.0257 87.7564 48 87C50.525 101.182 51.8876 102.807 67 100L67 99L64 99L64 94L68 94L68 93L61 92L62 89L64 89L71 92L64 84L64 83L72 84L69 85L69 86L77 89L76 85L81 84L87 88L81 83L80 78L79 80L78 80C77.9853 74.8791 77.9972 70.5487 73 68z"/>
<path stroke="none" fill="#c1b8bd" d="M119 71L126 83L116 85L116 86C122.175 88.1837 125.518 93.707 127 100L134 103L131 97L136 100L128 96L128 92L137 94L135 92L136 89L132 88L134 86L134 85L134 84L133 79L146 85L147 81L142 80L141 78L142 75L135 73L136 70z"/>
<path stroke="none" fill="#eb9061" d="M224 72L224 80L216 80L216 77L208 77C206.262 80.5882 203.686 80.5577 200 80L200 88L208 88L208 112L248 112L248 96L240 96L240 72z"/>
<path stroke="none" fill="#a03515" d="M0 91L0 112L24 112L27 90L32 91L32 88L50 88L56 80L39 81.6011z"/>
<path stroke="none" fill="#e9dad5" d="M133 79L134 84L134 85L134 86L132 88L136 89L135 92L146 96L146 97L142 97L142 98L147 99L146 105L142 105L142 106C150.349 107.818 153.86 114.944 159 121L154 125L161 123C155.741 106.416 155.121 81.9979 133 79z"/>
<path stroke="none" fill="#e7a78c" d="M147 82L154.74 98.1698L159 119L160 119L157.142 96.0895L149 82z"/>
<path stroke="none" fill="#755d5b" d="M64 83L64 84L71 92L64 89L62 89L61 92L68 93L68 94L64 94L67 99L67 100C57.3234 101.223 48.514 103.714 49 91L48 91L45 103L46 113C49.2676 118.876 45.4342 128.991 55 127L55 131L56 131L56 124C65.4187 127.432 60.1225 137.283 65.1752 143.393C68.708 147.665 75.4394 142.448 77 139L72 137L75 136L75 133L71 133L72 129L71 127C63.7477 123.076 65.1066 114.933 63 108L66 105L72 104L67 102L67 101C72.1147 100.958 87.6826 99.1959 87.169 91.2107C87.0032 88.6333 82.5172 85.9978 81 84L76 85L77 89L69 86L69 85L72 84z"/>
<path stroke="none" fill="#deb4b8" d="M107 107L100 116L104 118L117 117L117 118L112 118C113.265 121.777 115.334 121.569 119 121L119 122L117 122L117 123L132 126L132 127L130 128L139 125L134 117L140 119L133 115L132 107L136 113L140 112L141 117L143 117L144 114L156 123L159 121C154.797 114.33 150.421 107.06 142 106L142 105L146 105L147 99L142 98L142 97L146 97L146 96L128 92L128 96L136 100L131 97L134 103L127 100C126.561 96.7806 125.159 94.6058 123.705 91.7438C112.351 69.3949 80.6456 103.348 107 107z"/>
<path stroke="none" fill="#a53716" d="M46 87L32 88L32 91L27 90L24 112L0 112L0 176L16 176L16 144L20 144L20 136L24 136L24 120L32 120L32 112C37.3126 111.388 37.9404 109.001 38 104L42 105C40.6245 100.139 41.1671 97.2046 46 95L43 89z"/>
<path stroke="none" fill="#904935" d="M47 87L43 89L46 95C37.6046 97.3655 41.5633 125.864 48 128L56 141L57 141L53 128C45.6796 125.778 49.6258 118.177 46 113L45 103C48.0218 100.359 49.0052 90.382 47 87z"/>
<path stroke="none" fill="#c2999f" d="M94 90L84 102L88 102L88 103L85 104L84 115L88 115L80 119L80 124L89 122L89 123L86 124L92 131L91 123L95 123L95 112L98 112L95 106C95.9187 96.9628 95.3452 95.5575 101 88z"/>
<path stroke="none" fill="#d2a8a9" d="M96 92L95 106L98 112L95 112L95 123L91 123L91 125L96 125L96 129L113 123L112 118L117 118L117 117L104 118L100 116L107 107C98.1325 105.08 94.8052 100.782 98 92z"/>
<path stroke="none" fill="#af848b" d="M66 116L69 116L69 120L73 120L73 128L77 128L77 129L75 131L81 131C82.1776 134.882 84.0481 135.699 88 136L86 131L91 131L86 124L89 123L89 122L80 124L80 119L88 115L84 115L85 104L88 103L88 102L84 102L90 96C85.0442 96.7257 83.5971 100.28 79.8156 103.084C72.9966 108.141 66.1248 105.439 66 116z"/>
<path stroke="none" fill="#eb9363" d="M176 96L177 168L184 168L184 176C190.494 175.694 197.286 166.64 190.397 161.179C188.257 159.483 184.543 160.007 182 160L182 143C188.542 144.627 201.165 140.595 206.612 144.361C212.366 148.34 209 169.55 209 176L224 176L224 144L216 144L216 120L208 120L208 96z"/>
<path stroke="none" fill="#a83a19" d="M38 104C37.8449 108.737 36.8172 110.995 32 112L32 120L24 120L24 136L20 136L20 144L16 144L16 176L24 176L24 184L48 184L48 176L56 176L62 171L62 170L59 170L65 167C63.415 162.561 61.6934 160.143 57 159L61.1265 148.001L48 128C39.582 123.358 47.6364 107.871 38 104z"/>
<path stroke="none" fill="#ac9992" d="M132 107L133 115L140 119L134 117C135.602 119.679 138.864 122.573 136 125L136 126L139 127L147 120L154 124L155 121L144 114L143 117L141 117L140 112L136 113L135 107z"/>
<path stroke="none" fill="#eb9064" d="M224 176L240 176L240 192L232 192L232 200L224 200L224 207L216 208L216 209L226 210L226 211L222 211L222 212L256 221L256 147L255 111L241.419 112.27L240 124L239.437 156.735L225.992 159.883z"/>
<path stroke="none" fill="#e68d61" d="M160 112L165.904 130L165 164L159 162C165.169 178.37 172.117 196.406 190 202L181 192C186.637 190.792 184 173.154 184 168L177 168L174 128L173 128L171 138z"/>
<path stroke="none" fill="#ea9262" d="M208 112L208 120L216 120L216 144L224 144L224 160L238.581 158.73L240 146L240 112z"/>
<path stroke="none" fill="#886d64" d="M147 120L142 125L153 122z"/>
<path stroke="none" fill="#e69c91" d="M160 120L166 143C161.803 143.58 163.189 148.778 164 152L168 151C167.999 142.201 168.854 124.632 160 120z"/>
<path stroke="none" fill="#b28e90" d="M106 128L116 124L126 125L126 124L117 123L117 122L119 122C114.265 120.604 108.415 123.932 106 128z"/>
<path stroke="none" fill="#be7f76" d="M157 123L157 125C162.847 126.775 163.387 134.652 165 140C167.377 133.373 164.71 123.595 157 123z"/>
<path stroke="none" fill="#4b342c" d="M56 124L56 131L55 131L55 127L53 127L62 149L65 148C59.9565 154.292 61.5243 162.992 69 167L65 150L69 151L67 147L73 145C70.4412 144.199 66.9487 145.182 65.1752 142.667C60.8728 136.568 65.4564 126.045 56 124z"/>
<path stroke="none" fill="#956d6b" d="M100 132L94 130L98 136L99 136C103.907 131.471 109.002 127.383 116 128L116 124z"/>
<path stroke="none" fill="#e6bdb7" d="M140 124L139 127C130.694 126.183 132.542 141.892 126 147L128 149L120 154L120 155C130.337 160.528 132.673 177.822 144 181C145.057 177.508 146.418 176.568 150 176L152 169C155.801 167.735 155.768 165.688 155 162L157 164L158 164L165 164L167 150L166 150L165 153L163 153L162 148L159 148L156 151C157.275 145.26 157.587 142.543 155 137L161 141L166 143C163.73 133.105 163.028 125.136 152 124L152 128L148 126L141 127L142 124z"/>
<path stroke="none" fill="#a18776" d="M141 127L148 126L152 128C150.435 123.331 143.981 123.571 141 127z"/>
<path stroke="none" fill="#bd8085" d="M92 125L93 139L98 135L94 130L101 131L96 129L96 125z"/>
<path stroke="none" fill="#523233" d="M116 126L116 127L120 126z"/>
<path stroke="none" fill="#281109" d="M120 125L120 126C126.816 126.515 130.15 131.506 131 138L132 138L133 129z"/>
<path stroke="none" fill="#ddb7b6" d="M107 133C114.213 132.029 121.427 128.685 127 135L122 134L123 140L128 139L127 145C140.927 133.4 117.254 117.767 107 133z"/>
<path stroke="none" fill="#7d6a70" d="M130.667 126.333L131.333 126.667L130.667 126.333z"/>
<path stroke="none" fill="#52352f" d="M103 133L115 128C110.638 126.714 105.426 129.3 103 133z"/>
<path stroke="none" fill="#664744" d="M133 128L134 129z"/>
<path stroke="none" fill="#bc9397" d="M106 131L112 142L112 143L120 144L120 145L101 142C102.306 148.416 106.778 150.676 113 151L113 152L104 150L104 157L113 158L113 162L114 162L113 154L130 165L120 155L120 154L128 149L128 148L119 150L119 149C125.053 147.246 126.517 144.881 128 139L123 140L122 134L108 131z"/>
<path stroke="none" fill="#7c5e56" d="M112 133L121 134C118.047 131.908 115.221 131.173 112 133z"/>
<path stroke="none" fill="#54332a" d="M115 131L115 132L122 133z"/>
<path stroke="none" fill="#af8a81" d="M120 131L120 132L121 134L127 135z"/>
<path stroke="none" fill="#87655b" d="M104 132L101 137L102 141L103 141L104 138L112 140L106 132z"/>
<path stroke="none" fill="#5e3930" d="M99 137L103 133z"/>
<path stroke="none" fill="#91746e" d="M130.333 133.667L130.667 134.333L130.333 133.667z"/>
<path stroke="none" fill="#9d7374" d="M102 134C99.0454 137.583 98.2922 139.619 100 144L120 145L120 144L112 143L112 142L114 140L104 138L103 141L102 141L101 137z"/>
<path stroke="none" fill="#956966" d="M132 135L132 141L133 141z"/>
<path stroke="none" fill="#2a0c0c" d="M98 136L90 141L91 149L92 149C94.6494 139.901 99.9883 147.562 105 150z"/>
<path stroke="none" fill="#76534d" d="M80 138L80 139L93 141C89.3205 136.912 85.082 137.961 80 138z"/>
<path stroke="none" fill="#966151" d="M155 137L161 147L162 147L163 140L161 138z"/>
<path stroke="none" fill="#493328" d="M73 143L73 144L90 144L90 139z"/>
<path stroke="none" fill="#3c100f" d="M131.333 140.667L131.667 141.333L131.333 140.667z"/>
<path stroke="none" fill="#986164" d="M127 146L132 142z"/>
<path stroke="none" fill="#b98f90" d="M157 142L156 151L159 148L162 148L165 153L164 142L163 142L162 147L161 147z"/>
<path stroke="none" fill="#8b6c6a" d="M78 143L78 144L80 145L76 147L72 165C81.6297 167.087 100.994 152.732 88.5664 144.179C85.7819 142.263 81.2012 143 78 143z"/>
<path stroke="none" fill="#a67e7e" d="M94 143C94.9237 151.736 90.0357 167.147 102 169C102 176.999 101.684 185.348 112 181L111 177L113 177L106 165C111.164 164.431 115.043 164.998 116 159L133 171C131.106 164.106 119.84 155.715 113 154L113 163L97 163L99 159L96 143z"/>
<path stroke="none" fill="#e5b0ba" d="M96 143L99 159L97 163L113 163L113 158L104 157C105.135 150.809 101.453 145.763 96 143z"/>
<path stroke="none" fill="#eb9266" d="M182 143L182 160C193.964 160.108 196.263 174.62 184 176L184 184L216 184L215 175L209 176C209 169.614 212.359 148.145 206.867 144.169C201.706 140.434 188.317 143.881 182 143z"/>
<path stroke="none" fill="#a78b80" d="M72 149L80 145C75.7677 143.238 72.9713 144.549 72 149z"/>
<path stroke="none" fill="#93646c" d="M93 144L93 152L94 152z"/>
<path stroke="none" fill="#644239" d="M67 147L69 151L65 150L71 172L73 171C76.2811 183.492 85.746 201.768 96 210L87.4198 189.83L81 167L91 163C91.3979 168.281 94.2486 172.899 100 172C95.6537 162.609 93.2299 155.794 93 145L92 145C90.5281 156.646 86.0141 166.96 72 165L78 148L72 149L73 145z"/>
<path stroke="none" fill="#8c5e61" d="M119 149L119 150L127 147z"/>
<path stroke="none" fill="#220200" d="M57 159L64 164L65 164C62.8053 156.926 61.0331 154.731 65 148C60.4059 150.258 58.1301 154.075 57 159z"/>
<path stroke="none" fill="#62312c" d="M105 149L113 152L113 151z"/>
<path stroke="none" fill="#55282d" d="M115 150L115 151L118 151z"/>
<path stroke="none" fill="#d9aaa0" d="M116 159C114.43 164.364 110.851 163.996 106 165L113 177L111 177L112 180C120.081 178.5 124.369 178.163 131 173L133 179C124.757 179.423 111.43 183.667 106 190C111.835 188.937 115.346 189.303 115 196L120 196C116.077 203.601 121.653 205.658 128 208C130.8 202.497 138.398 208.242 142 210L143.194 199.333L151 197L152 197L153 202L154 202L158 192L159 192L162 204L160 203L160 204L160 209C179.387 200.958 165.463 173.473 159 162L157 164L155 162C155.403 165.58 155.201 167.194 152 169L150 176C146.136 176.3 144.652 177.089 144 181L134 170L131 171z"/>
<path stroke="none" fill="#805850" d="M88 166L89 166L89.3171 186.856L95.2469 198.285L96.4838 210.085L113 231L103 225L102 228C108.127 235.233 119.362 242.768 129 243L120 252L137 244L130 243L130 242L137 236L130 240C128.407 235.323 125.086 231.453 123.56 226.91C122.311 223.193 123.394 219.059 121.232 215.553C118.47 211.073 111.076 204.807 114 199L114 198C108.118 197.547 105.296 193.517 104 188L96 187L112 182C97.7479 185.832 106.717 170.654 99 169L100 172C94.6642 171.878 91.774 168.065 91 163z"/>
<path stroke="none" fill="#9d3212" d="M64 164C65.6846 169.044 71.8286 186.251 78 184L78 208L72 208L72 218C64.7806 218.086 63.8663 221.298 63 228L56 228L56 232L40 232L41 240L47 239C47.3638 242.464 47.2402 246.194 51 247L51 248L48 249L48 251L49 252C53.2665 250.725 56.0605 247.742 60.0394 245.99C75.324 239.26 100.732 233.563 95.6867 212C94.1442 205.408 88.0547 200.386 84.3812 194.985C79.953 188.475 76.0718 178.319 73 171L71 172z"/>
<path stroke="none" fill="#a18077" d="M81 167C84.0741 180.125 88.0892 191.325 95 203L96 203L89.3171 185.942L89 166L88 166L87 168z"/>
<path stroke="none" fill="#a73918" d="M62 170L62 171C58.5374 171.774 56.1962 172.204 56 176L48 176L48 184L32 184L32 192L40 192L40 200L48 200L48 192L59 192L59 184L69 181C69 177.263 67.5458 162.75 60.3611 167.694C58.2133 169.173 61.0446 169.795 62 170z"/>
<path stroke="none" fill="#a0656b" d="M129 173L109 182L109 183L133 179L131 173z"/>
<path stroke="none" fill="#a53618" d="M0 176L0 192L8 192L8 200L32 200L32 208L48 208L48 200L40 200L40 192L32 192L32 184L24 184L24 176z"/>
<path stroke="none" fill="#a43517" d="M69 176L69 181L59 184L59 192L48 192L48 208L32 208L32 200L16 200L16 208L24 208L24 216L72 218L72 208L78 208L78 184L76 186z"/>
<path stroke="none" fill="#ea9165" d="M216 176L216 184L184 184L181 192L190 202L182 200L182 201C193.622 205.289 203.14 210.448 216 211L216 210L208 208L204 191L224 192L224 176z"/>
<path stroke="none" fill="#ec9165" d="M224 176L224 192L204 191L208 208L250 219L250 218L222 212L222 211L226 211L226 210L216 209L216 208L224 207L224 200L232 200L232 192L240 192L240 176z"/>
<path stroke="none" fill="#763f42" d="M101 185L101 186L105 186L105 187L103 187L103 188L120 182z"/>
<path stroke="none" fill="#aa6a78" d="M115 183L115 184L120 183z"/>
<path stroke="none" fill="#562d2b" d="M96 187C98.5555 190.455 101.58 188.487 105 187z"/>
<path stroke="none" fill="#c59b8f" d="M114 198L114 199C107.551 205.235 123.279 212.661 128 213C123.225 218.565 125.859 223.21 126 230L132 236L133 236L141 221C140.364 223.716 136.642 228.889 138.161 231.508C140.102 234.852 144.48 230.422 145.996 228.977C152.32 222.951 159.225 215.934 163 208L160 209L160 203L162 204L162 203L159 192L158 192L154 202L153 202L152 197L151 197L151 200C141.465 196.603 141.934 201.962 142 210L140 207C136.276 206.609 129.019 203.343 128 208C121.89 204.979 117.147 203.72 120 196L115 196C116.092 188.957 112.02 188.571 106 190L108 187C99.8568 190.26 108.42 197.815 114 198z"/>
<path stroke="none" fill="#434053" d="M170 190C174.269 201.003 176 211.167 176 223L186 224L186 232L192 234C195.63 232.887 197.342 231.83 198 228L201 230L202 230C199.926 214.613 193.016 208.655 182.104 199.589C177.65 195.888 175.878 191.767 170 190z"/>
<path stroke="none" fill="#f2f3f5" d="M169 191C167.414 210.395 147.605 228.872 133 240L133 242L164 258C165.209 242.807 169.502 226.925 172.661 212C174.098 205.214 175.656 195.542 169 191z"/>
<path stroke="none" fill="#a33416" d="M0 192L0 224L16 224L16 232L24 232L24 240L40 240L40 232L56 232L56 228L63 228L63.7315 217.603L53 216L24 216L24 208L16 208L16 200L8 200L8 192z"/>
<path stroke="none" fill="#717b94" d="M174 200L174 204L175 204z"/>
<path stroke="none" fill="#5c3e40" d="M192 207L192 208L195 211L256 222L221 212.88z"/>
<path stroke="none" fill="#a27b6a" d="M116 208L121.656 217.188L126 230L128 213z"/>
<path stroke="none" fill="#7d839b" d="M173.333 208.667L173.667 209.333L173.333 208.667z"/>
<path stroke="none" fill="#38394b" d="M174 208L169 234L170 234L174 224L175 224L173 237L184 237L184 239L173 240C180.334 249.872 184.197 249.539 195 248L194 245L188 247L188 240L196 242L197 242L200 238L200 243L209 243L209 249L206 248L207 252C216.876 247.228 206.428 234.039 203 227L202 227L202 230L201 230L198 228L192 234L186 232L186 224L176 223L176 208z"/>
<path stroke="none" fill="#6f4a37" d="M96 210C96 217.59 95.197 225.442 104 228L103 225L113 231C111.546 221.994 102.368 215.801 96 210z"/>
<path stroke="none" fill="#2b2a3a" d="M196 210C197.592 227.677 223.305 248.568 214 266L216 272L218 269L219 272L230 272L230 271L224 271L224 266L232 266L232 265L224 265L224 264L228 264L224 258L224 257C229.945 256.531 241.723 258.356 241 250L256 250L256 222L222 214.598z"/>
<path stroke="none" fill="#a9aec2" d="M172.333 212.667L172.667 213.333L172.333 212.667z"/>
<path stroke="none" fill="#9698ad" d="M171 218L171 221L172 221z"/>
<path stroke="none" fill="#a9807a" d="M139 221L133 236L132 236C130.887 232.37 129.83 230.658 126 230L130 240L140 233L141 221z"/>
<path stroke="none" fill="#0d0d0f" d="M96 223C93.7297 229.804 87.418 232.836 82 237C85.6936 246.464 81.7162 259.676 78.7006 268.91C77.4205 272.829 69.2355 275.769 74 280L74 281L72 285C67.6222 281.136 68.3238 277.379 69 272C59.4864 274.039 66.6054 290.229 67 296L68 296L71 294L71 300L72 300L72 287C80.0694 289.198 79.9993 283.389 80 277L88 277L94 241L97 248L99 248L98 223z"/>
<path stroke="none" fill="#9d3115" d="M0 224L1 240C5.82689 239.366 13.551 238.064 16 243L24 243C24 247.889 24.6859 252.39 21 256C23.5331 263.628 29.1964 254.793 33.8981 258.899C35.1259 259.971 36.0692 261.412 35.0293 262.957C33.1226 265.789 28.8238 265.964 26.2778 268.028C23.2128 270.512 22.1408 274.451 19 277L20 288L22 288C23.4387 271.5 38.4169 263.19 51 254.508C55.2026 251.609 61.3543 249.376 64 245L49 252L48 251L48 249L51 248L51 247L48 247L47 239L24 240L24 232L16 232L16 224z"/>
<path stroke="none" fill="#6a6f8d" d="M170.333 224.667L170.667 225.333L170.333 224.667z"/>
<path stroke="none" fill="#2d2f3e" d="M174 224C165.555 242.672 163.768 261.999 160 282L161 282L163 273L164 273L162 286L166 284L163 293C170.068 288.918 168.286 281.803 178 286L176 281L171 282C175.312 278.411 177.781 277.211 176 271L184 271L184 268L176 268L176 266L188 263L187 255L184 255L184 252C190.728 254.938 194.409 257.169 202 256L201 259C206.13 256.577 208.109 253.416 206 248L209 249L209 243L200 243L200 238L197 242L196 242L188 240L188 247L195 248C183.686 248.812 181.741 248.406 173 240L184 239L184 237L173 237z"/>
<path stroke="none" fill="#939fd1" d="M99 226L99 250L102 246L103 246L104 254L105 254L108 253C107.189 247.197 105.777 234.633 101 231L101 230L104 230L104 229z"/>
<path stroke="none" fill="#484654" d="M99 229L99 232L100 232z"/>
<path stroke="none" fill="#d7dfff" d="M101 230L101 231C105.661 236.354 110.188 253.271 109 260L110 260C113.541 253.361 118.229 247.513 125 244L125 243z"/>
<path stroke="none" fill="#111217" d="M49 255L49 256L68 249L69 252L69 253L64 255L61 254L60 256L60 257C65.8888 260.612 64.8919 271.751 64 278L65 278L69 272C68.0647 277.041 66.9943 282.076 72 285L74 281L74 280C70.7122 275.01 77.2452 274.042 78.7006 269.791C81.5275 261.534 86.7443 244.949 82 237L86 235L74.7145 239.349z"/>
<path stroke="none" fill="#686e88" d="M168.333 234.667L168.667 235.333L168.333 234.667z"/>
<path stroke="none" fill="#a09cab" d="M111 236L111 237L114 237z"/>
<path stroke="none" fill="#7c829c" d="M167.333 238.667L167.667 239.333L167.333 238.667z"/>
<path stroke="none" fill="#9c3014" d="M0 239L0 262L16 264L17 269L22 270C24.0805 269.208 25.9941 268.259 28.0046 267.307C29.2959 266.695 30.6773 266.258 31.9552 265.63C36.4804 263.404 37.0195 257.157 30.8002 256.813C28.2964 256.674 26.666 259.449 24.1096 259.108C22.2353 258.858 21.7871 257.409 21 256C25.2241 253.261 24 247.57 24 243L16 243C14.2918 237.163 4.92399 239.745 0 239z"/>
<path stroke="none" fill="#1d1927" d="M94 241C93.2169 246.326 88.5919 258.993 93 263C86.6132 284.408 93.932 309.783 96.7014 331.09C97.6747 338.578 96 347.352 96 355L97 355L97 348L98 348L98 384L106 384C105.941 362.77 102.18 341.126 100.17 320C98.7528 305.11 100.37 289.816 98.4244 275C97.2597 266.129 101.938 247.016 94 241z"/>
<path stroke="none" fill="#c7b4ae" d="M130 243L133 241z"/>
<path stroke="none" fill="#888eae" d="M166 242L166 245L167 245z"/>
<path stroke="none" fill="#caa9a4" d="M125 243L125 244L129 244z"/>
<path stroke="none" fill="#604d4f" d="M124 264L125 264L128 249L128 248L120 252L129 245C113.554 238.717 121.284 257.986 124 264z"/>
<path stroke="none" fill="#b49870" d="M123 263C123.872 278.427 115.105 290.04 122 306C125.631 302.546 125.092 298.589 124 294C129.228 289.431 125.052 275.331 125 269L126 269L129.17 302L129 322L131 322C129.494 324.678 128.469 326.258 132 327L131 330L130 328L129 328L129 336L135 356L139 356L141 366L142 366L148.471 349L149 320L146 320L146 336L140 339L136 330C130.447 322.67 132 305.03 132 296L131 296L131 298L130 298L128 262L132 262L136 284C143.321 281.124 134 267.842 134 263C134 257.881 137.452 249.817 139 245L126 249z"/>
<path stroke="none" fill="#b9c7f4" d="M102 246C96.7347 256.938 98.7007 271.131 99.8302 283C101.004 295.339 100.436 307.625 102 320L103 320L104 312L105 312L105 328L106 328L107 290L108 290L111 332L112 332C112 317.413 113.182 302.42 115.424 288C117.104 277.2 121.447 270.979 119 260L109 260L109 250L108 250L108 253L105 254L104 254z"/>
<path stroke="none" fill="#96775b" d="M137 247L136 257L144 248z"/>
<path stroke="none" fill="#3b425e" d="M98 248L98 276L99 276z"/>
<path stroke="none" fill="#a2a4bd" d="M144 248L141 254L144 255C150.934 254.916 157.726 256.275 163 261C164.194 255.912 148.348 249.715 144 248z"/>
<path stroke="none" fill="#676c8c" d="M165.333 248.667L165.667 249.333L165.333 248.667z"/>
<path stroke="none" fill="#262837" d="M198 265L195 265L196 258L190 260L190 263L193 264L189 266L189 267L194 267L192 270L193 273C186.357 274.582 181.029 273.606 184 282L180 282L176 288L180 293L175 292C174.146 294.697 174.149 295.386 177 296L176 299L179 299L179 300L179 301L174 302L175 314C181.236 310.441 187.809 308.477 195 309L198 304L182 306L181 305L181 304L184 302L181 300L184 298L180 296L184 294L182 291L189 287L189 296L191 296L192 286L186 282C192.176 283.122 202.648 292.437 209.154 286.392C212.445 283.334 213.289 277.651 216 274L214 285L213 285L213 283L212 283L216 287L219 284L216 281L216 280L222 280L221 272L218 269L216 272L214 266C217.905 260.847 216.303 253.555 214 248C208.298 250.328 199.923 259.123 198 265z"/>
<path stroke="none" fill="#22222a" d="M241 250C240.642 253.684 239.543 254.953 236 256L237 262L241 262L237 272L232 272L232 273L235 273L235 274L232 274L232 279L238 279L240 300L232 301L232 302L241 301L242 305L240 309L248 305L246 301L245 301L242 304L245 279L242 276L248 275L251 279C250.525 283.803 251.749 290.286 256 293L256 250z"/>
<path stroke="none" fill="#15181f" d="M27 274L31 275L33 270L36 271L34 274L42 273L42 282L46 281L41 284L41 288L45 288L46 295L42 295L42 296L43 304L57 302L58 304L59 304L64 293L65 293L65 296L66 296C65.5992 286.666 64.712 277.299 64.0895 268C63.7758 263.313 65.0145 259.016 60 257L61 254L64 255L69 253L69 252L68 249C57.0117 249.13 45.5826 258.429 36.9606 264.519C33.2161 267.163 28.5116 269.53 27 274z"/>
<path stroke="none" fill="#67657b" d="M116 250L112 257L115 254L119 254z"/>
<path stroke="none" fill="#e7bd8b" d="M128 250C127.815 254.382 126.001 259.236 131 261L134 257C133.182 253.062 131.693 251.532 128 250z"/>
<path stroke="none" fill="#2a2c38" d="M184 252L187 255L188 263L176 266L176 268L184 268L184 271L176 271C177.367 277.388 174.412 277.776 171 282L176 281L178 286C169.161 280.548 168.839 287.91 163 293L166 284L162 286L164 273L163 273L159.568 286L158 299L163 320L171 319L169 312L173 314L174 302L179 299L176 299L177 296L175 292L180 293L176 288L180 282L184 282C182.093 273.812 186.592 274.899 193 273L192 270L194 267L189 267L189 266L193 264L190 263L190 260L196 258L194 260L195 265L198 265L202 256z"/>
<path stroke="none" fill="#dce0fd" d="M149 321L150 321C158.475 304.138 162.844 277.829 163 259L144 255C139.247 250.403 133.614 260.614 134.405 265C136.899 278.831 143.272 292.988 147.491 306.184C149.006 310.923 147.569 316.158 149 321z"/>
<path stroke="none" fill="#8185a2" d="M164 253L164 256L165 256z"/>
<path stroke="none" fill="#7074a3" d="M115 254L111 256L110 261L120 256z"/>
<path stroke="none" fill="#b0aec6" d="M111 261L119 260L121 270C125.454 260.732 119.323 250.971 111 261z"/>
<path stroke="none" fill="#121318" d="M91 256C85.7887 269.981 89.461 284.874 89.9815 299.004C90.3732 309.639 91.1721 320.416 90.9066 330.985C90.8201 334.432 88.8556 337.438 89.1474 340.925C90.3566 355.38 93.9713 369.763 96 384L98 384L98 348L97 348L97 355L96 355C96 347.179 97.6263 338.832 96.8572 331.09C94.6436 308.804 87.6439 285.445 93 263z"/>
<path stroke="none" fill="#2c2d32" d="M224 257L224 258L228 264L224 264L224 265L232 265L232 266L224 266L224 271L230 271L230 272C223.791 272.005 218.127 272.604 222 280L216 280L216 281L219 284L213 287L213 288L215 291L211 289L210 290L210 292L214 295L214 296C209.93 298.975 217.652 304.289 210 306L210 308L216 308L214 312L217 312L217 313C215.918 317.645 220.07 319.807 224 321L228 319C227.117 313.556 226.276 308.548 230 304L230 303L227 302L229 296L226 293L238 290L238 289L234 289L234 280L238 280L238 279L232 279L234 277L235 274L235 273L232 273L232 272L237 272L241 262L237 262C235.822 254.614 229.838 256.262 224 257z"/>
<path stroke="none" fill="#93290f" d="M0 262L0 302L16 302L18 315L19 315L19 277L24 269L17 269L16 264z"/>
<path stroke="none" fill="#d8b389" d="M128 262L130 298L131 298L131 296L132 296C132 303.654 130.073 324.821 136 330L140 339L141 336L146 336L147.621 315.961L139 275L138 275L136 284L132 262z"/>
<path stroke="none" fill="#a98853" d="M122 265L117.468 298L125 314L127 312L128 312L128 320L131 320L129 283L128 283C128 292.061 128.71 299.237 122 306C117.093 290.411 121.05 280.199 124 265z"/>
<path stroke="none" fill="#5f648e" d="M162.333 266.667L162.667 267.333L162.333 266.667z"/>
<path stroke="none" fill="#907041" d="M125 269L127 290L128 290C128 283.293 128.952 274.752 125 269z"/>
<path stroke="none" fill="#14141e" d="M33 270L31 275C25.4036 271.707 24.3146 277.49 23.7184 282C22.4714 291.432 21.7845 302.694 24 312L26 312L26 291L27 291L28 296L29 296L29 288L30 288C30.3579 296.209 34.0315 297.227 37.8218 303.299C40.1565 307.039 37.806 311.881 39.7423 315.682C41.6361 319.4 51.2759 319.959 55 320L56 311L56 304L43 304L42 296L42 295L46 295L45 288L41 288L41 284C43.9934 283.936 45.3456 284.054 46 281L42 282L42 273L34 274L36 271z"/>
<path stroke="none" fill="#5e5c84" d="M161.333 272.667L161.667 273.333L161.333 272.667z"/>
<path stroke="none" fill="#22222c" d="M215 274C204.975 291.138 197.076 311.243 196 331L200 331L200 336L203 336C203.002 338.879 202.385 342.727 204.603 344.965C210.643 351.055 230.602 346.771 228 337L238 337L238 336L232 337L232 324L228 323L228 322L231 320L216 331L216 335L216 336L218 344L214 344C214.057 337.062 216.992 325.227 211 320L217 312L214 312L214 311L216 308L210 308L210 306C216.75 304.817 211.865 300.1 214 296L214 295L210 292L210 290L211 289L215 291L212 283L213 283L213 285L214 285z"/>
<path stroke="none" fill="#1f1f27" d="M242 276L245 279L242 304L245 301L246 301L248 305L232 312L232 313L240 313L240 314L230 314L231 321L228 322L228 323L232 324L232 337L240 337L241 336L236 320L248 319L248 315L244 315L244 313L249 313L248 322L255 319L254 322L256 311L255.701 295.17L251 279L248 275z"/>
<path stroke="none" fill="#0e0f14" d="M80 277C79.9951 283.306 79.6539 288.408 72 287L72 300L71 300L71 294L68 296L67 296L67 291L66 291L66 296L65 296L65 293L64 293L60 304C60.5992 311.593 62.0408 320.028 65.2245 327C66.9837 330.852 70.4561 333.861 71.5671 338C73.1774 343.999 72.0043 352.133 78 356L83 336C79.1399 333.498 79.1961 327.378 79.0039 323C78.4818 311.111 81.2651 300.201 79 288C82.8694 287.175 82.8204 283.562 83 280L86 280L84 289L90 288C89.9991 279.441 88.9439 277.026 80 277z"/>
<path stroke="none" fill="#886746" d="M118 277C111.049 293.447 113.753 315.466 113 333L116 332L120 359L114 354L118 368L121 368C121.58 363.695 124.701 357.251 121 354L122 350L124 350L125 354L127 354L128 349C123.359 346.427 121.682 341.386 125 337L124 342L130 346L126 337L126 336C131.304 331.709 128.048 318.313 128 312L127 312L125 314L122 310L124 320L120 320L116 309C121.493 311.197 113.512 302.628 119 304z"/>
<path stroke="none" fill="#7a7da0" d="M160 277L160 280L161 280z"/>
<path stroke="none" fill="#2a0904" d="M23 280C17.7869 306.881 24 335.642 24 363L25 363L23.0394 305z"/>
<path stroke="none" fill="#090d10" d="M83 280L79 288L80 336L91 336L88 288L84 289L86 280z"/>
<path stroke="none" fill="#929bb8" d="M99 280L99 296L100 296z"/>
<path stroke="none" fill="#27262c" d="M234 280L234 289L238 289L238 290L226 293L229 296C227.98 298.767 226.236 302.544 230 303L230 304C225.607 307.552 226.585 314.143 228 319L224 321C218.906 318.716 214.558 313.027 211 320C216.148 326.779 214.022 336.115 214 344L218 344L216 336L216 335L218 334L218 333L216 333L216 331C223.042 329.885 229.482 320.864 230 314L240 314L240 313L232 313L232 312L242 311L240 309L240 308L240 307L242 305L241 301L232 302L232 301L240 300L238 280z"/>
<path stroke="none" fill="#232531" d="M186 282L192 286L191 296L189 296L189 287L182 291L184 294L180 296L184 298L181 300L184 302L181 303L182 306L198 304L195 309L176 312L176 314L181 314L181 315L178 318L184 316L184 312L189 312L188 320L188 321L192 322C200.085 315.069 205.365 297.975 209 288L196.259 286.735z"/>
<path stroke="none" fill="#687296" d="M159 283L159 286L160 286z"/>
<path stroke="none" fill="#8f250d" d="M19 288L19 315L18 315L16 302L0 302L0 344L17 344L17 336L20 336L20 359L22 358L22 368L23 368L21 288z"/>
<path stroke="none" fill="#0b090c" d="M29 288L29 296L28 296L27 291L26 291L25 384L30 384L31 354L33 360L37 360L36 350L33 351L33 345L36 347L37 344L35 336L29 336L30 326L32 326L32 332L35 332L33 304L36 308L37 308z"/>
<path stroke="none" fill="#7a5e2e" d="M126 288L124 294L125 303L127 303z"/>
<path stroke="none" fill="#797daa" d="M158.333 288.667L158.667 289.333L158.333 288.667z"/>
<path stroke="none" fill="#252733" d="M159 289L156 304L160 338L156 339L156 340L164 337L161 341L166 346L164 342C168.635 343.664 171.419 342.337 168 338C174.552 338.806 177.492 337.923 179 331L185 332L180 328C180.575 323.453 182.548 320.781 178 318L178 316L181 315L181 314L175 312L174 312L173 312L173 314L172 314L171 314L169 312L171 319L163 320L158 299C160.789 296.563 160.361 292.244 159 289z"/>
<path stroke="none" fill="#d0e5ff" d="M107 290L106 370L108 370L110.961 340L108.17 307z"/>
<path stroke="none" fill="#6b7191" d="M157.333 294.667L157.667 295.333L157.333 294.667z"/>
<path stroke="none" fill="#535b7f" d="M99 296L99 304L100 304z"/>
<path stroke="none" fill="#0b0c11" d="M61 299L59 304L56 302L73.7052 363L80.6844 382.397L96 384L89 336C77.217 336.383 78.7324 347.223 78 356L71.2616 336L60 304L64 299z"/>
<path stroke="none" fill="#545c73" d="M156.333 300.667L156.667 301.333L156.333 300.667z"/>
<path stroke="none" fill="#060709" d="M36 301L37 308L36 308L33 304L35 332L32 332L32 326L30 326L29 336L35 336L36 347L33 345L33 351L36 350L37 360L33 360L31 354L30 384L45 384C41.1514 363.573 37.9987 343.838 38 323C38.0004 316.849 41.6674 305.004 36 301z"/>
<path stroke="none" fill="#a199b1" d="M144 302L147 315L148 315C148 309.993 149.029 304.637 144 302z"/>
<path stroke="none" fill="#72511e" d="M117 303L116 309L120 320L124 320L123 307z"/>
<path stroke="none" fill="#10131a" d="M56 304C54.5894 306.72 53.4961 308.806 56 311L55 320L42 318C42 324.997 39.5576 336.823 45 342L49 341L50 336L54 336L56 358L62 352L58 352L60 347L64 349L61 335L63.6944 331L58.6389 320z"/>
<path stroke="none" fill="#85879e" d="M155 304L155 307L156 307z"/>
<path stroke="none" fill="#191d29" d="M156 304C151.128 329.858 144 357.649 144 384L160 384L164 368L155 366L153 370L152 370L155 355L153 354L150 356C157.806 340.723 158.002 320.671 158 304z"/>
<path stroke="none" fill="#858dbb" d="M100 306L100 315L101 315z"/>
<path stroke="none" fill="#866a45" d="M113 306L112.039 342L113 368L116 384L144 384L148 352L147 352L141 364L145 365L141 383L140 383L136 371L135 371L132 376L132 369C125.305 369.239 124 354.914 124 350L121 354L121 368L118 368L114 354L120 359L116 332L113 333z"/>
<path stroke="none" fill="#676c96" d="M154 310L154 313L155 313z"/>
<path stroke="none" fill="#b2b9ff" d="M153 311L149 328C153.319 324.986 154.945 315.769 153 311z"/>
<path stroke="none" fill="#0d0e13" d="M38 312L41.385 365L45.7415 382.972L56 384L81 384L73 360L72 360L73 376L70 380L59 378L59 376L64 376L64 368C58.6393 366.681 52.9362 363.786 52 358L48 353C33.9374 348.92 42.2207 322.058 38 312z"/>
<path stroke="none" fill="#a4b0e4" d="M104 312L103 320L102 320L102 316L101 316L104 351L105 351C105 339.828 108.311 322.274 104 312z"/>
<path stroke="none" fill="#222431" d="M184 312L184 316L179 317L179 319L180 328L185 332L179 331C176.832 337.272 174.387 338.429 168 338L171 340L164 342L166 346L161 341L164 337L156 340L156 339L160 338L159 328C153.384 329.203 151.964 350.311 150 356L152 354L153 354L155 355C151.535 361.542 151.531 362.767 152 370L153 370L155 366L164 368L162 376C173.375 368.09 181.046 347.892 187.224 335.83C189.902 330.601 193.123 326.032 192 320L188 321L188 320L189 312z"/>
<path stroke="none" fill="#19191b" d="M244 313L244 315L248 315L248 319L236 320L241 336L228 337C229.287 344.818 220.181 345.949 214 347L214 348C221.845 349.781 230.431 342.708 235 352C248.132 355.972 225.311 363.152 222 365L222 366L230 365L230 366L227 367L229 384L256 384L255 319L248 322L250 320L249 313z"/>
<path stroke="none" fill="#b1906d" d="M137 314L137 316L139 316L139 314z"/>
<path stroke="none" fill="#040605" d="M197 314C190.502 329.178 183.168 344.468 174.331 358.425C169.497 366.06 160.623 374.733 160 384L167 384C170.189 375.09 174.463 358.805 183 354C182.903 340.863 200.836 326.847 197 314z"/>
<path stroke="none" fill="#4c5381" d="M100 315L100 323L101 323z"/>
<path stroke="none" fill="#0f1219" d="M39 316C39 324.877 36.5282 351.17 48 353C48.1343 356.251 48.8978 357.052 52 358C52.4886 364.181 58.2336 367.185 64 368L64 376L59 376L59 378L70 380L73 376C70.5331 365.643 74.1662 339.314 61 335L64 349L60 347L58 352L62 352L56 358L54 336L50 336L49 341L47 339L45 342z"/>
<path stroke="none" fill="#b6a1a8" d="M112 317L112 326L113 326z"/>
<path stroke="none" fill="#97856f" d="M128 321L131 330L132 327L131 321z"/>
<path stroke="none" fill="#5f6a97" d="M152 322L152 325L153 325z"/>
<path stroke="none" fill="#14151a" d="M195 323C191.413 332.108 181.656 344.09 183 354C174.541 356.91 168.923 375.821 167 384L210 384L210 383L210 375L206 375L208 373L208 372L208 371L208 369L208 368L197 369L197 368L200 365L206 367L208 364L208 363L208 362L208 360L208 359L202 360L204 358L203 354C206.788 353.411 215.179 351.832 216 348C207.384 348.98 203.029 344.079 203 336L200 336L200 331L196 331z"/>
<path stroke="none" fill="#7e7ea4" d="M151 326L149 328L150 333L151 333z"/>
<path stroke="none" fill="#515988" d="M101 330L101 336L102 336z"/>
<path stroke="none" fill="#967969" d="M111 332L112 360L112 367L110 366L109 384L116 384L113 368C115.425 359.777 114.322 339.917 111 332z"/>
<path stroke="none" fill="#9f7e5f" d="M128 332L126 336L126 337L130 346L123 343L128 349L127 354L125 352L124 352C124.015 357.396 125.367 368.18 132 369L132 376L133 376L133 373L135 374L135 371L136 371L140 383L141 383L144 364L141 366L139 356L135 356L129 336L130 332z"/>
<path stroke="none" fill="#7e1c03" d="M17 336L17 344L0 344L0 384L25 384L24 336L23 336L23 368L22 368L22 358L20 359L20 336z"/>
<path stroke="none" fill="#ac8f71" d="M123 337L125 343L125 337z"/>
<path stroke="none" fill="#8a8fc7" d="M102 339L104 363L105 363z"/>
<path stroke="none" fill="#b7b0b8" d="M110 344L110 352L111 352z"/>
<path stroke="none" fill="#1f1e24" d="M203 354L202 360L208 359L208 360L206 361L206 362L208 362L208 363L208 364L206 367L200 365L197 368L197 369L208 368L208 369L206 370L206 371L208 371L208 372L208 373L206 373L206 375L210 375C203.719 387.084 221.786 384 229 384L227 367L230 366L230 365L222 366L222 365C225.249 363.703 249.528 354.471 235 352C231.449 340.232 210.756 351.42 203 354z"/>
<path stroke="none" fill="#c6c4f3" d="M109 355L108 370L106 370L106 365L105 365L107 384L109 384z"/>
<path stroke="none" fill="#b5aabb" d="M111 360L109 367L112 367z"/>
<path stroke="none" fill="#482e2d" d="M141.333 361.667L141.667 362.333L141.333 361.667z"/>
<path stroke="none" fill="#465073" d="M104 363L104 367L105 367z"/>
<path stroke="none" fill="#5d4a50" d="M111.333 363.667L111.667 364.333L111.333 363.667z"/>
<path stroke="none" fill="#a294a1" d="M109 368L109 378L110 378z"/>
<path stroke="none" fill="#505978" d="M105 373L105 376L106 376z"/>
<path stroke="none" fill="#4c301b" d="M133.333 373.667L133.667 374.333L133.333 373.667z"/>
<path stroke="none" fill="#3f426d" d="M106 380L106 384L107 384z"/>
</svg>
