

<!--?xml version="1.0" standalone="no"?-->
<!--svg viewBox="-780.9 -158.7 2110.8 1184.4" preserveAspectRatio="xMidYMid meet"-->
<svg viewBox="-750 -150 2000 1150" preserveAspectRatio="xMidYMid meet" xmlns="http://www.w3.org/2000/svg">
<title>generated by pstoedit version:3.33 from d:/work/graphics/newVanEykLogo.eps</title>
<g fill="#83b4cf" stroke-width="0">
    <desc>van</desc>
    <path d="M -311.758 549.367 L -311.758 608.531 L -602.145 701.391 L -602.145 658.734 L -344.953 579.18 L -344.953 578.121 L -602.145 501.348 L -602.145 455.418 L -311.758 549.367"/>
    <path d="M -398.063 254.379 C -451.738 254.379 -452.238 284.727 -452.238 339.23 C -452.238 389.395 -448.895 409.648 -401.938 409.648 C -346.641 409.648 -343.824 387.707 -343.824 339.23 C -343.824 297.102 -344.953 254.379 -398.063 254.379 Z M -311.758 253.187 L -341.645 253.187 L -342.766 254.379 C -309.543 270.23 -308.285 311.398 -308.285 346.742 C -308.285 409.648 -320.664 453.43 -396.344 453.43 C -476.66 453.43 -487.68 413.422 -487.68 343.992 C -487.68 316.23 -484.832 261.727 -458.324 255.902 L -458.324 253.187 L -511.934 253.187 C -565.016 253.187 -569.945 280.488 -569.945 328.078 C -569.945 361.004 -569.945 401.078 -530.203 401.078 L -520.242 401.078 L -520.242 444.859 L -526.328 444.859 C -598.273 444.859 -605.422 399.027 -605.422 332.773 C -605.422 259.641 -595.461 211.094 -509.785 211.094 L -311.758 211.094 L -311.758 253.187"/>
    <path d="M -566.637 133.23 L -566.637 132.105 C -601.551 118.77 -605.422 77.699 -605.422 45.668 C -605.422 -25.348 -585.996 -60.129 -504.789 -60.129 L -311.758 -60.129 L -311.758 -17.836 L -508.063 -17.836 C -561.141 -17.836 -569.945 1.85199 -569.945 49.406 C -569.945 118.141 -547.84 133.23 -481.027 133.23 L -311.758 133.23 L -311.758 175.289 L -602.145 175.289 L -602.145 133.23 L -566.637 133.23"/>
</g>
<g fill="#5d96aa" stroke-width="0">
    <desc>Eyk</desc>
	<path d="M -96.7031 254.547 L 182.359 254.547 L 182.359 366.629 L -96.7031 366.629 L -96.7031 579.113 L 202.711 579.113 L 202.711 693.25 L -230 693.25 L -230 -60.129 L 199.965 -60.129 L 199.965 54.074 L -96.7031 54.074 L -96.7031 254.547"/>
	<path d="M 547.535 714.363 C 520.629 833.922 498.426 927.309 362.383 927.309 C 345.672 927.309 328.992 924.262 312.379 923.305 L 312.379 827.898 C 320.688 828.957 328.992 830.844 337.328 830.844 C 410.5 830.844 421.617 754.566 431.742 693.25 L 375.32 693.25 L 215.156 165.957 L 335.512 165.957 L 458.68 614.953 L 460.5 614.953 L 554.914 165.957 L 673.449 165.957 L 547.535 714.363"/>
	<path d="M 822.793 370.863 L 851.418 370.863 L 987.527 165.957 L 1119.04 165.957 L 946.824 414.051 L 1154.25 693.25 L 1013.54 693.25 L 851.418 457.203 L 822.793 457.203 L 822.793 693.25 L 706.078 693.25 L 706.078 -60.129 L 822.793 -60.129 L 822.793 370.863"/>
</g>
</svg>
